G04*
G04 #@! TF.GenerationSoftware,Altium Limited,Altium Designer,19.1.7 (138)*
G04*
G04 Layer_Color=8388736*
%FSLAX25Y25*%
%MOIN*%
G70*
G01*
G75*
%ADD15R,0.04540X0.04934*%
%ADD16R,0.20485X0.20485*%
%ADD17R,0.07690X0.13398*%
%ADD18R,0.07690X0.04540*%
%ADD19R,0.05721X0.03162*%
%ADD20R,0.04147X0.03556*%
%ADD21R,0.05131X0.07493*%
%ADD22R,0.03162X0.02178*%
%ADD23R,0.03241X0.03162*%
%ADD24R,0.04934X0.04540*%
%ADD25R,0.03556X0.04147*%
%ADD26R,0.07887X0.04737*%
%ADD27R,0.04934X0.04737*%
%ADD28R,0.09461X0.04934*%
%ADD29R,0.05918X0.04934*%
%ADD30R,0.21469X0.21469*%
%ADD31R,0.01981X0.04343*%
%ADD32R,0.04343X0.01981*%
%ADD33R,0.04737X0.04737*%
%ADD34R,0.02965X0.04737*%
%ADD35R,0.07099X0.10642*%
%ADD36R,0.04343X0.02572*%
%ADD37R,0.14816X0.05800*%
%ADD38R,0.05524X0.03162*%
%ADD39R,0.05800X0.12454*%
%ADD40R,0.02769X0.04934*%
%ADD41R,0.06509X0.04343*%
%ADD42C,0.12788*%
%ADD43C,0.17158*%
%ADD44C,0.07099*%
%ADD45C,0.05918*%
%ADD46C,0.06064*%
%ADD47C,0.12611*%
%ADD48C,0.05800*%
%ADD49C,0.03200*%
D15*
X602354Y332500D02*
D03*
X596646D02*
D03*
X578854Y197000D02*
D03*
X573146D02*
D03*
X596854Y413500D02*
D03*
X591146D02*
D03*
X679354Y405000D02*
D03*
X673646D02*
D03*
X597646Y312500D02*
D03*
X603354D02*
D03*
X574646Y313500D02*
D03*
X580354D02*
D03*
X547146Y303000D02*
D03*
X552854D02*
D03*
X595146Y379500D02*
D03*
X600854D02*
D03*
X582146Y357500D02*
D03*
X587854D02*
D03*
X567500Y391500D02*
D03*
X573209D02*
D03*
X583500Y247000D02*
D03*
X589209D02*
D03*
D16*
X499500Y438575D02*
D03*
D17*
X568197Y222945D02*
D03*
D18*
X593000Y232000D02*
D03*
Y222945D02*
D03*
Y213890D02*
D03*
D19*
X434343Y153480D02*
D03*
Y149740D02*
D03*
Y146000D02*
D03*
X424500D02*
D03*
Y149740D02*
D03*
Y153480D02*
D03*
D20*
X436500Y134472D02*
D03*
Y139000D02*
D03*
X368500Y128264D02*
D03*
Y123736D02*
D03*
X372000Y157264D02*
D03*
Y152736D02*
D03*
D21*
X367000Y141500D02*
D03*
D22*
X371134Y144059D02*
D03*
Y141500D02*
D03*
Y138941D02*
D03*
X362866D02*
D03*
Y141500D02*
D03*
Y144059D02*
D03*
D23*
X354000Y123689D02*
D03*
Y127311D02*
D03*
X362500Y170622D02*
D03*
Y167000D02*
D03*
X351000Y170311D02*
D03*
Y166689D02*
D03*
X337500Y170622D02*
D03*
Y167000D02*
D03*
D24*
X627500Y406646D02*
D03*
Y412354D02*
D03*
X583500Y280146D02*
D03*
Y285854D02*
D03*
X649433Y411902D02*
D03*
Y406193D02*
D03*
D25*
X674000Y422000D02*
D03*
X669472D02*
D03*
X670500Y441000D02*
D03*
X665972D02*
D03*
X554736Y346500D02*
D03*
X559264D02*
D03*
X527000Y190500D02*
D03*
X531528D02*
D03*
X441264Y369000D02*
D03*
X436736D02*
D03*
D26*
X682500Y365579D02*
D03*
Y375421D02*
D03*
D27*
X667000Y347500D02*
D03*
D28*
X673004Y341693D02*
D03*
Y353307D02*
D03*
D29*
X676028Y324142D02*
D03*
X666973D02*
D03*
Y316858D02*
D03*
X676028D02*
D03*
D30*
X643917Y358484D02*
D03*
D31*
X654744Y344902D02*
D03*
X652776D02*
D03*
X650807D02*
D03*
X648839D02*
D03*
X646870D02*
D03*
X644902D02*
D03*
X642933D02*
D03*
X640965D02*
D03*
X638996D02*
D03*
X637028D02*
D03*
X635059D02*
D03*
X633091D02*
D03*
Y372067D02*
D03*
X635059D02*
D03*
X637028D02*
D03*
X638996D02*
D03*
X640965D02*
D03*
X642933D02*
D03*
X644902D02*
D03*
X646870D02*
D03*
X648839D02*
D03*
X650807D02*
D03*
X652776D02*
D03*
X654744D02*
D03*
D32*
X630335Y347657D02*
D03*
Y349626D02*
D03*
Y351594D02*
D03*
Y353563D02*
D03*
Y355531D02*
D03*
Y357500D02*
D03*
Y359469D02*
D03*
Y361437D02*
D03*
Y363406D02*
D03*
Y365374D02*
D03*
Y367343D02*
D03*
Y369311D02*
D03*
X657500D02*
D03*
Y367343D02*
D03*
Y365374D02*
D03*
Y363406D02*
D03*
Y361437D02*
D03*
Y359469D02*
D03*
Y357500D02*
D03*
Y355531D02*
D03*
Y353563D02*
D03*
Y351594D02*
D03*
Y349626D02*
D03*
Y347657D02*
D03*
D33*
X508094Y211000D02*
D03*
X514000D02*
D03*
D34*
X600461Y295000D02*
D03*
X595539D02*
D03*
D35*
X673709Y473937D02*
D03*
D36*
X679417Y477874D02*
D03*
Y473937D02*
D03*
Y470000D02*
D03*
X668000D02*
D03*
Y473937D02*
D03*
Y477874D02*
D03*
D37*
X671012Y251000D02*
D03*
X660500Y241000D02*
D03*
X671012Y231000D02*
D03*
X660500Y201000D02*
D03*
X671012Y211039D02*
D03*
X660500Y221000D02*
D03*
X502512Y342500D02*
D03*
X492000Y332500D02*
D03*
X502512Y322500D02*
D03*
X492000Y292500D02*
D03*
X502512Y302539D02*
D03*
X492000Y312500D02*
D03*
X489512Y244000D02*
D03*
X479000Y234000D02*
D03*
X489512Y224000D02*
D03*
X479000Y194000D02*
D03*
X489512Y204039D02*
D03*
X479000Y214000D02*
D03*
X671512Y177000D02*
D03*
X661000Y167000D02*
D03*
X671512Y157000D02*
D03*
X661000Y127000D02*
D03*
X671512Y137039D02*
D03*
X661000Y147000D02*
D03*
D38*
X455500Y153240D02*
D03*
Y149500D02*
D03*
Y145760D02*
D03*
X465343D02*
D03*
Y149500D02*
D03*
Y153240D02*
D03*
D39*
X636500Y455000D02*
D03*
X626500Y469173D02*
D03*
X545500Y224913D02*
D03*
X535500Y239087D02*
D03*
D40*
X510000Y233020D02*
D03*
Y241980D02*
D03*
D41*
X342000Y138807D02*
D03*
Y145500D02*
D03*
D42*
X499500Y390150D02*
D03*
Y487000D02*
D03*
D43*
X378500Y480508D02*
D03*
Y193500D02*
D03*
D44*
Y446472D02*
D03*
Y227535D02*
D03*
D45*
X461000Y120500D02*
D03*
X451157D02*
D03*
X441315D02*
D03*
D46*
X394500Y142000D02*
D03*
X404500Y152000D02*
D03*
X414500Y142000D02*
D03*
D47*
X550004Y149311D02*
D03*
X531500Y137500D02*
D03*
Y161122D02*
D03*
D48*
X584500Y383500D02*
D03*
X564500Y380500D02*
D03*
X572000Y336500D02*
D03*
X681500Y260500D02*
D03*
X592500Y339500D02*
D03*
X586000Y302000D02*
D03*
X548500Y281000D02*
D03*
X569500Y301500D02*
D03*
X352000Y133000D02*
D03*
X357000Y153500D02*
D03*
X435500Y127500D02*
D03*
X449500Y141500D02*
D03*
X600500Y223000D02*
D03*
X555000Y206500D02*
D03*
X662000Y306000D02*
D03*
D49*
X666000Y338000D02*
D03*
X667000Y330000D02*
D03*
X661500Y338000D02*
D03*
X657500Y407291D02*
D03*
X443000Y364600D02*
D03*
X499300D02*
D03*
X619112Y363538D02*
D03*
X624200Y363406D02*
D03*
X493400Y366700D02*
D03*
X614800Y360850D02*
D03*
X502500Y315500D02*
D03*
X508400Y346500D02*
D03*
X614750Y345200D02*
D03*
X504600Y298100D02*
D03*
X602000Y344600D02*
D03*
X683300Y442328D02*
D03*
X669472Y428500D02*
D03*
X561000Y306000D02*
D03*
X499000Y244000D02*
D03*
X610100Y312800D02*
D03*
X561000D02*
D03*
X657300Y226300D02*
D03*
X643900Y380900D02*
D03*
X550000Y354500D02*
D03*
X587854Y351594D02*
D03*
X545500Y213500D02*
D03*
X395722Y170622D02*
D03*
X644250Y335100D02*
D03*
X609300Y359700D02*
D03*
X488300Y341700D02*
D03*
X635050Y337900D02*
D03*
X502500Y292500D02*
D03*
X635059Y341500D02*
D03*
X596854Y395146D02*
D03*
X663000Y357500D02*
D03*
X561700Y119500D02*
D03*
X661000Y177000D02*
D03*
X603354Y318100D02*
D03*
X550300D02*
D03*
X605900Y318800D02*
D03*
X507400Y206200D02*
D03*
X645100Y331850D02*
D03*
X618699Y351594D02*
D03*
X436000Y156500D02*
D03*
X461400Y149500D02*
D03*
X512500Y240900D02*
D03*
X648450Y337985D02*
D03*
X624777Y369936D02*
D03*
X645100Y324600D02*
D03*
X625300Y374900D02*
D03*
X679200Y360300D02*
D03*
X664326Y368100D02*
D03*
X682200Y357500D02*
D03*
X690400Y378600D02*
D03*
X648852D02*
D03*
X633100Y409400D02*
D03*
X408000Y395300D02*
D03*
M02*
