G04*
G04 #@! TF.GenerationSoftware,Altium Limited,Altium Designer,19.1.7 (138)*
G04*
G04 Layer_Physical_Order=2*
G04 Layer_Color=16711680*
%FSLAX25Y25*%
%MOIN*%
G70*
G01*
G75*
%ADD77C,0.00600*%
%ADD78C,0.11988*%
%ADD79C,0.16358*%
%ADD80C,0.06299*%
%ADD81C,0.05118*%
%ADD82C,0.05264*%
%ADD83C,0.11811*%
%ADD84C,0.05000*%
%ADD85C,0.02400*%
G36*
X369375Y481204D02*
X369710Y480833D01*
X369678Y480508D01*
X369848Y478787D01*
X370350Y477132D01*
X371165Y475607D01*
X372262Y474270D01*
X373599Y473173D01*
X375124Y472358D01*
X376779Y471856D01*
X378500Y471686D01*
X380221Y471856D01*
X381876Y472358D01*
X383401Y473173D01*
X384738Y474270D01*
X385835Y475607D01*
X386650Y477132D01*
X387152Y478787D01*
X387322Y480508D01*
X387292Y480808D01*
X387628Y481179D01*
X496681Y481030D01*
X496964Y480878D01*
X498207Y480501D01*
X499500Y480374D01*
X500793Y480501D01*
X502036Y480878D01*
X502305Y481022D01*
X698000Y480755D01*
Y107000D01*
X332354Y106001D01*
X332000Y106354D01*
X332000Y480901D01*
X332354Y481254D01*
X369375Y481204D01*
D02*
G37*
%LPC*%
G36*
X683300Y444163D02*
X682598Y444023D01*
X682002Y443625D01*
X681604Y443030D01*
X681465Y442328D01*
X681554Y441879D01*
X669921Y430246D01*
X669472Y430335D01*
X668770Y430196D01*
X668175Y429798D01*
X667777Y429202D01*
X667637Y428500D01*
X667777Y427798D01*
X668175Y427202D01*
X668770Y426804D01*
X669472Y426665D01*
X670175Y426804D01*
X670770Y427202D01*
X671168Y427798D01*
X671308Y428500D01*
X671218Y428948D01*
X682852Y440582D01*
X683300Y440492D01*
X684002Y440632D01*
X684598Y441030D01*
X684996Y441625D01*
X685135Y442328D01*
X684996Y443030D01*
X684598Y443625D01*
X684002Y444023D01*
X683300Y444163D01*
D02*
G37*
G36*
X378500Y453405D02*
X377148Y453272D01*
X375847Y452877D01*
X374648Y452237D01*
X373598Y451374D01*
X372736Y450324D01*
X372095Y449125D01*
X371701Y447825D01*
X371567Y446472D01*
X371701Y445120D01*
X372095Y443819D01*
X372736Y442621D01*
X373598Y441570D01*
X374648Y440708D01*
X375847Y440067D01*
X377148Y439673D01*
X378500Y439540D01*
X379853Y439673D01*
X381153Y440067D01*
X382351Y440708D01*
X383402Y441570D01*
X384264Y442621D01*
X384905Y443819D01*
X385299Y445120D01*
X385433Y446472D01*
X385299Y447825D01*
X384905Y449125D01*
X384264Y450324D01*
X383402Y451374D01*
X382351Y452237D01*
X381153Y452877D01*
X379853Y453272D01*
X378500Y453405D01*
D02*
G37*
G36*
X633100Y411235D02*
X632398Y411096D01*
X631802Y410698D01*
X631548Y410318D01*
X422100D01*
X421749Y410248D01*
X421451Y410049D01*
X408448Y397046D01*
X408000Y397135D01*
X407298Y396996D01*
X406702Y396598D01*
X406304Y396002D01*
X406165Y395300D01*
X406304Y394598D01*
X406702Y394002D01*
X407298Y393604D01*
X408000Y393465D01*
X408702Y393604D01*
X409298Y394002D01*
X409696Y394598D01*
X409835Y395300D01*
X409746Y395748D01*
X422480Y408482D01*
X484954D01*
X485106Y407982D01*
X485042Y407940D01*
X443448Y366346D01*
X443000Y366435D01*
X442298Y366296D01*
X441702Y365898D01*
X441304Y365302D01*
X441165Y364600D01*
X441304Y363898D01*
X441702Y363302D01*
X442298Y362904D01*
X443000Y362765D01*
X443702Y362904D01*
X444298Y363302D01*
X444696Y363898D01*
X444835Y364600D01*
X444746Y365048D01*
X486071Y406374D01*
X655948D01*
X656202Y405994D01*
X656798Y405596D01*
X657500Y405456D01*
X658202Y405596D01*
X658798Y405994D01*
X659196Y406589D01*
X659335Y407291D01*
X659196Y407994D01*
X658798Y408589D01*
X658202Y408987D01*
X657500Y409127D01*
X656798Y408987D01*
X656202Y408589D01*
X655948Y408209D01*
X635067D01*
X634781Y408618D01*
X634798Y408709D01*
X634935Y409400D01*
X634796Y410102D01*
X634398Y410698D01*
X633802Y411096D01*
X633100Y411235D01*
D02*
G37*
G36*
X585000Y386964D02*
Y384000D01*
X587964D01*
X587910Y384414D01*
X587557Y385265D01*
X586996Y385996D01*
X586265Y386557D01*
X585414Y386910D01*
X585000Y386964D01*
D02*
G37*
G36*
X584000D02*
X583586Y386910D01*
X582735Y386557D01*
X582004Y385996D01*
X581443Y385265D01*
X581090Y384414D01*
X581036Y384000D01*
X584000D01*
Y386964D01*
D02*
G37*
G36*
X499500Y396776D02*
X498207Y396648D01*
X496964Y396271D01*
X495819Y395659D01*
X494815Y394835D01*
X493991Y393831D01*
X493378Y392685D01*
X493001Y391442D01*
X492874Y390150D01*
X493001Y388857D01*
X493378Y387614D01*
X493991Y386468D01*
X494815Y385464D01*
X495819Y384640D01*
X496964Y384028D01*
X498207Y383651D01*
X499500Y383524D01*
X500793Y383651D01*
X502036Y384028D01*
X503181Y384640D01*
X504185Y385464D01*
X505009Y386468D01*
X505622Y387614D01*
X505999Y388857D01*
X506126Y390150D01*
X505999Y391442D01*
X505622Y392685D01*
X505009Y393831D01*
X504185Y394835D01*
X503181Y395659D01*
X502036Y396271D01*
X500793Y396648D01*
X499500Y396776D01*
D02*
G37*
G36*
X596854Y396981D02*
X596152Y396841D01*
X595557Y396443D01*
X595159Y395848D01*
X595019Y395146D01*
X595159Y394443D01*
X595557Y393848D01*
X596152Y393450D01*
X596854Y393310D01*
X597557Y393450D01*
X598152Y393848D01*
X598406Y394228D01*
X636724D01*
X645082Y385870D01*
Y382854D01*
X644671Y382591D01*
X644582Y382599D01*
X643900Y382735D01*
X643198Y382596D01*
X642602Y382198D01*
X642204Y381602D01*
X642065Y380900D01*
X642204Y380198D01*
X642602Y379602D01*
X642982Y379348D01*
Y370400D01*
X643052Y370049D01*
X643251Y369751D01*
X671982Y341020D01*
Y237080D01*
X662120Y227218D01*
X658852D01*
X658598Y227598D01*
X658002Y227996D01*
X657300Y228135D01*
X656598Y227996D01*
X656002Y227598D01*
X655604Y227002D01*
X655465Y226300D01*
X655604Y225598D01*
X656002Y225002D01*
X656598Y224604D01*
X657300Y224465D01*
X658002Y224604D01*
X658598Y225002D01*
X658852Y225382D01*
X662500D01*
X662851Y225452D01*
X663149Y225651D01*
X673549Y236051D01*
X673748Y236349D01*
X673818Y236700D01*
Y341400D01*
X673748Y341751D01*
X673549Y342049D01*
X644818Y370780D01*
Y373750D01*
X645318Y373901D01*
X645351Y373851D01*
X661254Y357948D01*
X661165Y357500D01*
X661304Y356798D01*
X661702Y356202D01*
X662298Y355804D01*
X663000Y355665D01*
X663702Y355804D01*
X664298Y356202D01*
X664552Y356582D01*
X680648D01*
X680902Y356202D01*
X681498Y355804D01*
X682200Y355665D01*
X682902Y355804D01*
X683498Y356202D01*
X683896Y356798D01*
X684035Y357500D01*
X683896Y358202D01*
X683498Y358798D01*
X682902Y359196D01*
X682200Y359335D01*
X681498Y359196D01*
X681011Y358870D01*
X680650Y359231D01*
X680896Y359598D01*
X681035Y360300D01*
X680896Y361002D01*
X680498Y361598D01*
X679902Y361996D01*
X679200Y362135D01*
X678498Y361996D01*
X677902Y361598D01*
X677648Y361218D01*
X672506D01*
X666072Y367652D01*
X666161Y368100D01*
X666022Y368802D01*
X665624Y369398D01*
X665028Y369796D01*
X664326Y369935D01*
X663624Y369796D01*
X663028Y369398D01*
X662630Y368802D01*
X662491Y368100D01*
X662630Y367398D01*
X663028Y366802D01*
X663624Y366404D01*
X664326Y366265D01*
X664774Y366354D01*
X671477Y359651D01*
X671775Y359452D01*
X672126Y359382D01*
X677648D01*
X677902Y359002D01*
X678029Y358918D01*
X677877Y358418D01*
X664552D01*
X664298Y358798D01*
X663702Y359196D01*
X663000Y359335D01*
X662552Y359246D01*
X646918Y374880D01*
Y377355D01*
X647418Y377506D01*
X647554Y377302D01*
X648149Y376904D01*
X648852Y376765D01*
X649554Y376904D01*
X650149Y377302D01*
X650403Y377682D01*
X688848D01*
X689102Y377302D01*
X689698Y376904D01*
X690400Y376765D01*
X691102Y376904D01*
X691698Y377302D01*
X692096Y377898D01*
X692235Y378600D01*
X692096Y379302D01*
X691698Y379898D01*
X691102Y380296D01*
X690400Y380435D01*
X689698Y380296D01*
X689102Y379898D01*
X688848Y379518D01*
X650403D01*
X650149Y379898D01*
X649554Y380296D01*
X648852Y380435D01*
X648149Y380296D01*
X647554Y379898D01*
X647418Y379694D01*
X646918Y379845D01*
Y386250D01*
X646848Y386601D01*
X646649Y386899D01*
X637753Y395795D01*
X637456Y395993D01*
X637104Y396063D01*
X598406D01*
X598152Y396443D01*
X597557Y396841D01*
X596854Y396981D01*
D02*
G37*
G36*
X565000Y383964D02*
Y381000D01*
X567964D01*
X567910Y381414D01*
X567557Y382265D01*
X566996Y382996D01*
X566265Y383557D01*
X565414Y383910D01*
X565000Y383964D01*
D02*
G37*
G36*
X564000D02*
X563586Y383910D01*
X562735Y383557D01*
X562004Y382996D01*
X561443Y382265D01*
X561090Y381414D01*
X561036Y381000D01*
X564000D01*
Y383964D01*
D02*
G37*
G36*
X587964Y383000D02*
X585000D01*
Y380036D01*
X585414Y380090D01*
X586265Y380443D01*
X586996Y381004D01*
X587557Y381735D01*
X587910Y382586D01*
X587964Y383000D01*
D02*
G37*
G36*
X584000D02*
X581036D01*
X581090Y382586D01*
X581443Y381735D01*
X582004Y381004D01*
X582735Y380443D01*
X583586Y380090D01*
X584000Y380036D01*
Y383000D01*
D02*
G37*
G36*
X567964Y380000D02*
X565000D01*
Y377036D01*
X565414Y377090D01*
X566265Y377443D01*
X566996Y378004D01*
X567557Y378735D01*
X567910Y379586D01*
X567964Y380000D01*
D02*
G37*
G36*
X564000D02*
X561036D01*
X561090Y379586D01*
X561443Y378735D01*
X562004Y378004D01*
X562735Y377443D01*
X563586Y377090D01*
X564000Y377036D01*
Y380000D01*
D02*
G37*
G36*
X625300Y376735D02*
X624598Y376596D01*
X624002Y376198D01*
X623604Y375602D01*
X623465Y374900D01*
X623604Y374198D01*
X624002Y373602D01*
X624598Y373204D01*
X625300Y373065D01*
X625748Y373154D01*
X649632Y349270D01*
Y347014D01*
X649132Y346862D01*
X649099Y346912D01*
X626523Y369488D01*
X626613Y369936D01*
X626473Y370638D01*
X626075Y371234D01*
X625480Y371632D01*
X624777Y371771D01*
X624075Y371632D01*
X623480Y371234D01*
X623082Y370638D01*
X622942Y369936D01*
X623082Y369234D01*
X623480Y368638D01*
X624075Y368240D01*
X624777Y368101D01*
X625226Y368190D01*
X647532Y345883D01*
Y339537D01*
X647152Y339283D01*
X646754Y338688D01*
X646615Y337985D01*
X646663Y337742D01*
X646202Y337495D01*
X645649Y338049D01*
X645351Y338248D01*
X645000Y338318D01*
X638700D01*
X638349Y338248D01*
X638051Y338049D01*
X637269Y337266D01*
X636808Y337513D01*
X636885Y337900D01*
X636796Y338348D01*
X638149Y339702D01*
X638348Y339999D01*
X638418Y340350D01*
Y343850D01*
X638348Y344201D01*
X638149Y344499D01*
X621404Y361244D01*
X621310Y361307D01*
X621227Y361382D01*
X621163Y361405D01*
X621106Y361443D01*
X620996Y361465D01*
X620890Y361503D01*
X620331Y361587D01*
X620214Y362110D01*
X620409Y362241D01*
X620807Y362836D01*
X620947Y363538D01*
X620807Y364241D01*
X620409Y364836D01*
X619814Y365234D01*
X619569Y365282D01*
X619619Y365782D01*
X622120D01*
X622929Y364973D01*
X622902Y364703D01*
X622504Y364108D01*
X622365Y363406D01*
X622504Y362703D01*
X622902Y362108D01*
X623498Y361710D01*
X624200Y361570D01*
X624902Y361710D01*
X625498Y362108D01*
X625896Y362703D01*
X626035Y363406D01*
X625896Y364108D01*
X625498Y364703D01*
X625118Y364957D01*
Y365000D01*
X625048Y365351D01*
X624849Y365649D01*
X623149Y367349D01*
X622851Y367548D01*
X622500Y367618D01*
X494952D01*
X494698Y367998D01*
X494102Y368396D01*
X493400Y368535D01*
X492698Y368396D01*
X492102Y367998D01*
X491704Y367402D01*
X491565Y366700D01*
X491704Y365998D01*
X492102Y365402D01*
X492698Y365004D01*
X493400Y364865D01*
X494102Y365004D01*
X494698Y365402D01*
X494952Y365782D01*
X497346D01*
X497609Y365371D01*
X497601Y365282D01*
X497465Y364600D01*
X497604Y363898D01*
X498002Y363302D01*
X498598Y362904D01*
X499300Y362765D01*
X500002Y362904D01*
X500598Y363302D01*
X500852Y363682D01*
X508331D01*
X508523Y363220D01*
X488748Y343446D01*
X488300Y343535D01*
X487598Y343396D01*
X487002Y342998D01*
X486604Y342402D01*
X486465Y341700D01*
X486604Y340998D01*
X487002Y340402D01*
X487598Y340004D01*
X488300Y339865D01*
X489002Y340004D01*
X489598Y340402D01*
X489996Y340998D01*
X490135Y341700D01*
X490046Y342148D01*
X510180Y362282D01*
X515381D01*
X515573Y361820D01*
X501851Y348099D01*
X501652Y347801D01*
X501582Y347450D01*
Y317052D01*
X501202Y316798D01*
X500804Y316202D01*
X500665Y315500D01*
X500804Y314798D01*
X501202Y314202D01*
X501798Y313804D01*
X502500Y313665D01*
X503202Y313804D01*
X503798Y314202D01*
X504196Y314798D01*
X504335Y315500D01*
X504196Y316202D01*
X503798Y316798D01*
X503418Y317052D01*
Y347070D01*
X517230Y360882D01*
X607346D01*
X607609Y360471D01*
X607600Y360382D01*
X607465Y359700D01*
X607604Y358998D01*
X608002Y358402D01*
X608598Y358004D01*
X609300Y357865D01*
X609748Y357954D01*
X612681Y355021D01*
X612979Y354822D01*
X613330Y354752D01*
X618906D01*
X630652Y343006D01*
Y334880D01*
X630722Y334529D01*
X630921Y334231D01*
X631201Y333951D01*
X631498Y333752D01*
X631850Y333682D01*
X643132D01*
X643451Y333469D01*
X643522Y333268D01*
X643281Y332850D01*
X643153Y332768D01*
X631196D01*
X619617Y344346D01*
Y350043D01*
X619997Y350297D01*
X620395Y350892D01*
X620535Y351594D01*
X620395Y352297D01*
X619997Y352892D01*
X619402Y353290D01*
X618699Y353430D01*
X617997Y353290D01*
X617402Y352892D01*
X617148Y352512D01*
X589406D01*
X589152Y352892D01*
X588557Y353290D01*
X587854Y353430D01*
X587406Y353341D01*
X585598Y355149D01*
X585300Y355348D01*
X584949Y355418D01*
X551552D01*
X551298Y355798D01*
X550702Y356196D01*
X550000Y356335D01*
X549298Y356196D01*
X548702Y355798D01*
X548304Y355202D01*
X548165Y354500D01*
X548304Y353798D01*
X548702Y353202D01*
X549298Y352804D01*
X550000Y352665D01*
X550702Y352804D01*
X551298Y353202D01*
X551552Y353582D01*
X584569D01*
X586108Y352043D01*
X586019Y351594D01*
X586159Y350892D01*
X586557Y350297D01*
X587152Y349899D01*
X587854Y349759D01*
X588557Y349899D01*
X589152Y350297D01*
X589406Y350677D01*
X617148D01*
X617402Y350297D01*
X617782Y350043D01*
Y343966D01*
X617852Y343615D01*
X618050Y343317D01*
X630167Y331201D01*
X630464Y331002D01*
X630816Y330932D01*
X643548D01*
X643802Y330552D01*
X644398Y330154D01*
X644941Y330046D01*
X645157Y329555D01*
X639320Y323718D01*
X532800D01*
X532449Y323648D01*
X532151Y323449D01*
X507222Y298519D01*
X506668Y298673D01*
X506628Y298831D01*
X551480Y343682D01*
X600448D01*
X600702Y343302D01*
X601298Y342904D01*
X602000Y342765D01*
X602702Y342904D01*
X603298Y343302D01*
X603696Y343898D01*
X603835Y344600D01*
X603696Y345302D01*
X603298Y345898D01*
X602702Y346296D01*
X602000Y346435D01*
X601298Y346296D01*
X600702Y345898D01*
X600448Y345518D01*
X598222D01*
X598015Y346018D01*
X599830Y347832D01*
X610820D01*
X613004Y345648D01*
X612915Y345200D01*
X613054Y344498D01*
X613452Y343902D01*
X614048Y343504D01*
X614750Y343365D01*
X615452Y343504D01*
X616048Y343902D01*
X616446Y344498D01*
X616585Y345200D01*
X616446Y345902D01*
X616048Y346498D01*
X615452Y346896D01*
X614750Y347035D01*
X614302Y346946D01*
X611849Y349399D01*
X611551Y349598D01*
X611200Y349668D01*
X599450D01*
X599099Y349598D01*
X598801Y349399D01*
X596820Y347418D01*
X509952D01*
X509698Y347798D01*
X509102Y348196D01*
X508400Y348335D01*
X507698Y348196D01*
X507102Y347798D01*
X506704Y347202D01*
X506565Y346500D01*
X506704Y345798D01*
X507102Y345202D01*
X507698Y344804D01*
X508400Y344665D01*
X509102Y344804D01*
X509698Y345202D01*
X509952Y345582D01*
X550077D01*
X550285Y345082D01*
X505048Y299846D01*
X504600Y299935D01*
X503898Y299796D01*
X503302Y299398D01*
X502904Y298802D01*
X502765Y298100D01*
X502904Y297398D01*
X503302Y296802D01*
X503898Y296404D01*
X504316Y296321D01*
X504481Y295779D01*
X502948Y294246D01*
X502500Y294335D01*
X501798Y294196D01*
X501202Y293798D01*
X500804Y293202D01*
X500665Y292500D01*
X500804Y291798D01*
X501202Y291202D01*
X501798Y290804D01*
X502500Y290665D01*
X503202Y290804D01*
X503798Y291202D01*
X504196Y291798D01*
X504335Y292500D01*
X504246Y292948D01*
X533180Y321882D01*
X639700D01*
X640051Y321952D01*
X640349Y322151D01*
X642793Y324595D01*
X643305Y324400D01*
X643404Y323898D01*
X643802Y323302D01*
X644398Y322904D01*
X645100Y322765D01*
X645802Y322904D01*
X646398Y323302D01*
X646796Y323898D01*
X646935Y324600D01*
X646846Y325048D01*
X651199Y329401D01*
X651398Y329699D01*
X651468Y330050D01*
Y349650D01*
X651398Y350001D01*
X651199Y350299D01*
X627046Y374452D01*
X627135Y374900D01*
X626996Y375602D01*
X626598Y376198D01*
X626002Y376596D01*
X625300Y376735D01*
D02*
G37*
G36*
X593000Y342964D02*
Y340000D01*
X595964D01*
X595910Y340414D01*
X595557Y341265D01*
X594996Y341996D01*
X594265Y342557D01*
X593414Y342910D01*
X593000Y342964D01*
D02*
G37*
G36*
X592000D02*
X591586Y342910D01*
X590735Y342557D01*
X590004Y341996D01*
X589443Y341265D01*
X589090Y340414D01*
X589036Y340000D01*
X592000D01*
Y342964D01*
D02*
G37*
G36*
X666500Y340144D02*
Y338500D01*
X668144D01*
X668072Y338858D01*
X667586Y339586D01*
X666858Y340072D01*
X666500Y340144D01*
D02*
G37*
G36*
X665500D02*
X665142Y340072D01*
X664414Y339586D01*
X663928Y338858D01*
X663811Y338274D01*
X663801Y338222D01*
X663291D01*
X663281Y338274D01*
X663196Y338702D01*
X662798Y339298D01*
X662202Y339696D01*
X661500Y339835D01*
X660798Y339696D01*
X660202Y339298D01*
X659804Y338702D01*
X659665Y338000D01*
X659804Y337298D01*
X660202Y336702D01*
X660582Y336448D01*
Y331180D01*
X649120Y319718D01*
X607452D01*
X607198Y320098D01*
X606602Y320496D01*
X605900Y320635D01*
X605198Y320496D01*
X604602Y320098D01*
X604294Y319637D01*
X604057Y319796D01*
X603354Y319935D01*
X602652Y319796D01*
X602057Y319398D01*
X601802Y319018D01*
X551852D01*
X551598Y319398D01*
X551002Y319796D01*
X550300Y319935D01*
X549598Y319796D01*
X549002Y319398D01*
X548604Y318802D01*
X548465Y318100D01*
X548604Y317398D01*
X549002Y316802D01*
X549598Y316404D01*
X550300Y316265D01*
X551002Y316404D01*
X551598Y316802D01*
X551852Y317182D01*
X601802D01*
X602057Y316802D01*
X602652Y316404D01*
X603354Y316265D01*
X604057Y316404D01*
X604652Y316802D01*
X604960Y317263D01*
X605198Y317104D01*
X605900Y316965D01*
X606602Y317104D01*
X607198Y317502D01*
X607452Y317882D01*
X649500D01*
X649851Y317952D01*
X650149Y318151D01*
X662149Y330151D01*
X662348Y330449D01*
X662418Y330800D01*
Y336448D01*
X662798Y336702D01*
X663196Y337298D01*
X663281Y337726D01*
X663291Y337778D01*
X663801D01*
X663811Y337726D01*
X663928Y337142D01*
X664414Y336414D01*
X665142Y335928D01*
X666000Y335757D01*
X666082Y335689D01*
Y332033D01*
X665414Y331586D01*
X664928Y330858D01*
X664856Y330500D01*
X669144D01*
X669072Y330858D01*
X668586Y331586D01*
X667918Y332033D01*
Y336910D01*
X668072Y337142D01*
X668144Y337500D01*
X666000D01*
Y338000D01*
X665500D01*
Y340144D01*
D02*
G37*
G36*
X572500Y339964D02*
Y337000D01*
X575464D01*
X575410Y337414D01*
X575057Y338265D01*
X574496Y338996D01*
X573765Y339557D01*
X572914Y339910D01*
X572500Y339964D01*
D02*
G37*
G36*
X571500D02*
X571086Y339910D01*
X570235Y339557D01*
X569504Y338996D01*
X568943Y338265D01*
X568590Y337414D01*
X568536Y337000D01*
X571500D01*
Y339964D01*
D02*
G37*
G36*
X595964Y339000D02*
X593000D01*
Y336036D01*
X593414Y336090D01*
X594265Y336443D01*
X594996Y337004D01*
X595557Y337735D01*
X595910Y338586D01*
X595964Y339000D01*
D02*
G37*
G36*
X592000D02*
X589036D01*
X589090Y338586D01*
X589443Y337735D01*
X590004Y337004D01*
X590735Y336443D01*
X591586Y336090D01*
X592000Y336036D01*
Y339000D01*
D02*
G37*
G36*
X575464Y336000D02*
X572500D01*
Y333036D01*
X572914Y333090D01*
X573765Y333443D01*
X574496Y334004D01*
X575057Y334735D01*
X575410Y335586D01*
X575464Y336000D01*
D02*
G37*
G36*
X571500D02*
X568536D01*
X568590Y335586D01*
X568943Y334735D01*
X569504Y334004D01*
X570235Y333443D01*
X571086Y333090D01*
X571500Y333036D01*
Y336000D01*
D02*
G37*
G36*
X669144Y329500D02*
X667500D01*
Y327856D01*
X667858Y327928D01*
X668586Y328414D01*
X669072Y329142D01*
X669144Y329500D01*
D02*
G37*
G36*
X666500D02*
X664856D01*
X664928Y329142D01*
X665414Y328414D01*
X666142Y327928D01*
X666500Y327856D01*
Y329500D01*
D02*
G37*
G36*
X610100Y314635D02*
X609398Y314496D01*
X608802Y314098D01*
X608548Y313718D01*
X562552D01*
X562298Y314098D01*
X561702Y314496D01*
X561000Y314635D01*
X560298Y314496D01*
X559702Y314098D01*
X559304Y313502D01*
X559165Y312800D01*
X559304Y312098D01*
X559702Y311502D01*
X560298Y311104D01*
X561000Y310965D01*
X561702Y311104D01*
X562298Y311502D01*
X562552Y311882D01*
X608548D01*
X608802Y311502D01*
X609398Y311104D01*
X610100Y310965D01*
X610802Y311104D01*
X611398Y311502D01*
X611796Y312098D01*
X611935Y312800D01*
X611796Y313502D01*
X611398Y314098D01*
X610802Y314496D01*
X610100Y314635D01*
D02*
G37*
G36*
X662500Y309464D02*
Y306500D01*
X665464D01*
X665410Y306914D01*
X665057Y307765D01*
X664496Y308496D01*
X663765Y309057D01*
X662914Y309410D01*
X662500Y309464D01*
D02*
G37*
G36*
X661500D02*
X661086Y309410D01*
X660235Y309057D01*
X659504Y308496D01*
X658943Y307765D01*
X658590Y306914D01*
X658536Y306500D01*
X661500D01*
Y309464D01*
D02*
G37*
G36*
X561000Y307835D02*
X560298Y307696D01*
X559702Y307298D01*
X559304Y306702D01*
X559165Y306000D01*
X559254Y305552D01*
X499448Y245746D01*
X499000Y245835D01*
X498298Y245696D01*
X497702Y245298D01*
X497304Y244702D01*
X497165Y244000D01*
X497304Y243298D01*
X497702Y242702D01*
X498298Y242304D01*
X499000Y242165D01*
X499702Y242304D01*
X500298Y242702D01*
X500696Y243298D01*
X500835Y244000D01*
X500746Y244448D01*
X560552Y304254D01*
X561000Y304165D01*
X561702Y304304D01*
X562298Y304702D01*
X562696Y305298D01*
X562835Y306000D01*
X562696Y306702D01*
X562298Y307298D01*
X561702Y307696D01*
X561000Y307835D01*
D02*
G37*
G36*
X665464Y305500D02*
X662500D01*
Y302536D01*
X662914Y302590D01*
X663765Y302943D01*
X664496Y303504D01*
X665057Y304235D01*
X665410Y305086D01*
X665464Y305500D01*
D02*
G37*
G36*
X661500D02*
X658536D01*
X658590Y305086D01*
X658943Y304235D01*
X659504Y303504D01*
X660235Y302943D01*
X661086Y302590D01*
X661500Y302536D01*
Y305500D01*
D02*
G37*
G36*
X586500Y305464D02*
Y302500D01*
X589464D01*
X589410Y302914D01*
X589057Y303765D01*
X588496Y304496D01*
X587765Y305057D01*
X586914Y305410D01*
X586500Y305464D01*
D02*
G37*
G36*
X585500D02*
X585086Y305410D01*
X584235Y305057D01*
X583504Y304496D01*
X582943Y303765D01*
X582590Y302914D01*
X582536Y302500D01*
X585500D01*
Y305464D01*
D02*
G37*
G36*
X570000Y304964D02*
Y302000D01*
X572964D01*
X572910Y302414D01*
X572557Y303265D01*
X571996Y303996D01*
X571265Y304557D01*
X570414Y304910D01*
X570000Y304964D01*
D02*
G37*
G36*
X569000D02*
X568586Y304910D01*
X567735Y304557D01*
X567004Y303996D01*
X566443Y303265D01*
X566090Y302414D01*
X566036Y302000D01*
X569000D01*
Y304964D01*
D02*
G37*
G36*
X589464Y301500D02*
X586500D01*
Y298536D01*
X586914Y298590D01*
X587765Y298943D01*
X588496Y299504D01*
X589057Y300235D01*
X589410Y301086D01*
X589464Y301500D01*
D02*
G37*
G36*
X585500D02*
X582536D01*
X582590Y301086D01*
X582943Y300235D01*
X583504Y299504D01*
X584235Y298943D01*
X585086Y298590D01*
X585500Y298536D01*
Y301500D01*
D02*
G37*
G36*
X572964Y301000D02*
X570000D01*
Y298036D01*
X570414Y298090D01*
X571265Y298443D01*
X571996Y299004D01*
X572557Y299735D01*
X572910Y300586D01*
X572964Y301000D01*
D02*
G37*
G36*
X569000D02*
X566036D01*
X566090Y300586D01*
X566443Y299735D01*
X567004Y299004D01*
X567735Y298443D01*
X568586Y298090D01*
X569000Y298036D01*
Y301000D01*
D02*
G37*
G36*
X549000Y284464D02*
Y281500D01*
X551964D01*
X551910Y281914D01*
X551557Y282765D01*
X550996Y283496D01*
X550265Y284057D01*
X549414Y284410D01*
X549000Y284464D01*
D02*
G37*
G36*
X548000D02*
X547586Y284410D01*
X546735Y284057D01*
X546004Y283496D01*
X545443Y282765D01*
X545090Y281914D01*
X545036Y281500D01*
X548000D01*
Y284464D01*
D02*
G37*
G36*
X551964Y280500D02*
X549000D01*
Y277536D01*
X549414Y277590D01*
X550265Y277943D01*
X550996Y278504D01*
X551557Y279235D01*
X551910Y280086D01*
X551964Y280500D01*
D02*
G37*
G36*
X548000D02*
X545036D01*
X545090Y280086D01*
X545443Y279235D01*
X546004Y278504D01*
X546735Y277943D01*
X547586Y277590D01*
X548000Y277536D01*
Y280500D01*
D02*
G37*
G36*
X682000Y263964D02*
Y261000D01*
X684964D01*
X684910Y261414D01*
X684557Y262265D01*
X683996Y262996D01*
X683265Y263557D01*
X682414Y263910D01*
X682000Y263964D01*
D02*
G37*
G36*
X681000D02*
X680586Y263910D01*
X679735Y263557D01*
X679004Y262996D01*
X678443Y262265D01*
X678090Y261414D01*
X678036Y261000D01*
X681000D01*
Y263964D01*
D02*
G37*
G36*
X684964Y260000D02*
X682000D01*
Y257036D01*
X682414Y257090D01*
X683265Y257443D01*
X683996Y258004D01*
X684557Y258735D01*
X684910Y259586D01*
X684964Y260000D01*
D02*
G37*
G36*
X681000D02*
X678036D01*
X678090Y259586D01*
X678443Y258735D01*
X679004Y258004D01*
X679735Y257443D01*
X680586Y257090D01*
X681000Y257036D01*
Y260000D01*
D02*
G37*
G36*
X512500Y242735D02*
X511798Y242596D01*
X511202Y242198D01*
X510804Y241602D01*
X510665Y240900D01*
X510684Y240804D01*
X510367Y240418D01*
X422035D01*
X421684Y240348D01*
X421386Y240149D01*
X382535Y201298D01*
X381876Y201650D01*
X380221Y202152D01*
X378500Y202322D01*
X376779Y202152D01*
X375124Y201650D01*
X373599Y200835D01*
X372262Y199738D01*
X371165Y198401D01*
X370350Y196876D01*
X369848Y195221D01*
X369678Y193500D01*
X369848Y191779D01*
X370350Y190124D01*
X371165Y188599D01*
X372262Y187262D01*
X373599Y186165D01*
X375124Y185350D01*
X376779Y184848D01*
X378500Y184678D01*
X380221Y184848D01*
X381876Y185350D01*
X383401Y186165D01*
X384738Y187262D01*
X385835Y188599D01*
X386650Y190124D01*
X387152Y191779D01*
X387322Y193500D01*
X387152Y195221D01*
X386650Y196876D01*
X385835Y198401D01*
X384738Y199738D01*
X384385Y200028D01*
X384360Y200527D01*
X422415Y238582D01*
X511250D01*
X511601Y238652D01*
X511899Y238851D01*
X512177Y239129D01*
X512500Y239065D01*
X513202Y239204D01*
X513798Y239602D01*
X514196Y240198D01*
X514335Y240900D01*
X514196Y241602D01*
X513798Y242198D01*
X513202Y242596D01*
X512500Y242735D01*
D02*
G37*
G36*
X601000Y226464D02*
Y223500D01*
X603964D01*
X603910Y223914D01*
X603557Y224765D01*
X602996Y225496D01*
X602265Y226057D01*
X601414Y226410D01*
X601000Y226464D01*
D02*
G37*
G36*
X600000D02*
X599586Y226410D01*
X598735Y226057D01*
X598004Y225496D01*
X597443Y224765D01*
X597090Y223914D01*
X597036Y223500D01*
X600000D01*
Y226464D01*
D02*
G37*
G36*
X378500Y234468D02*
X377148Y234335D01*
X375847Y233940D01*
X374648Y233300D01*
X373598Y232437D01*
X372736Y231387D01*
X372095Y230188D01*
X371701Y228888D01*
X371567Y227535D01*
X371701Y226183D01*
X372095Y224882D01*
X372736Y223684D01*
X373598Y222633D01*
X374648Y221771D01*
X375847Y221130D01*
X377148Y220736D01*
X378500Y220603D01*
X379853Y220736D01*
X381153Y221130D01*
X382351Y221771D01*
X383402Y222633D01*
X384264Y223684D01*
X384905Y224882D01*
X385299Y226183D01*
X385433Y227535D01*
X385299Y228888D01*
X384905Y230188D01*
X384264Y231387D01*
X383402Y232437D01*
X382351Y233300D01*
X381153Y233940D01*
X379853Y234335D01*
X378500Y234468D01*
D02*
G37*
G36*
X603964Y222500D02*
X601000D01*
Y219536D01*
X601414Y219590D01*
X602265Y219943D01*
X602996Y220504D01*
X603557Y221235D01*
X603910Y222086D01*
X603964Y222500D01*
D02*
G37*
G36*
X600000D02*
X597036D01*
X597090Y222086D01*
X597443Y221235D01*
X598004Y220504D01*
X598735Y219943D01*
X599586Y219590D01*
X600000Y219536D01*
Y222500D01*
D02*
G37*
G36*
X545500Y215335D02*
X544798Y215196D01*
X544202Y214798D01*
X543948Y214418D01*
X438600D01*
X438249Y214348D01*
X437951Y214149D01*
X396170Y172368D01*
X395722Y172457D01*
X395020Y172318D01*
X394424Y171920D01*
X394026Y171324D01*
X393887Y170622D01*
X394026Y169920D01*
X394424Y169324D01*
X395020Y168926D01*
X395722Y168787D01*
X396424Y168926D01*
X397020Y169324D01*
X397418Y169920D01*
X397557Y170622D01*
X397468Y171070D01*
X438980Y212582D01*
X543948D01*
X544202Y212202D01*
X544798Y211804D01*
X545500Y211665D01*
X546202Y211804D01*
X546798Y212202D01*
X547196Y212798D01*
X547335Y213500D01*
X547196Y214202D01*
X546798Y214798D01*
X546202Y215196D01*
X545500Y215335D01*
D02*
G37*
G36*
X555500Y209964D02*
Y207000D01*
X558464D01*
X558410Y207414D01*
X558057Y208265D01*
X557496Y208996D01*
X556765Y209557D01*
X555914Y209910D01*
X555500Y209964D01*
D02*
G37*
G36*
X554500D02*
X554086Y209910D01*
X553235Y209557D01*
X552504Y208996D01*
X551943Y208265D01*
X551590Y207414D01*
X551536Y207000D01*
X554500D01*
Y209964D01*
D02*
G37*
G36*
X558464Y206000D02*
X555500D01*
Y203036D01*
X555914Y203090D01*
X556765Y203443D01*
X557496Y204004D01*
X558057Y204735D01*
X558410Y205586D01*
X558464Y206000D01*
D02*
G37*
G36*
X554500D02*
X551536D01*
X551590Y205586D01*
X551943Y204735D01*
X552504Y204004D01*
X553235Y203443D01*
X554086Y203090D01*
X554500Y203036D01*
Y206000D01*
D02*
G37*
G36*
X507400Y208035D02*
X506698Y207896D01*
X506102Y207498D01*
X505704Y206902D01*
X505565Y206200D01*
X505704Y205498D01*
X506102Y204902D01*
X506482Y204648D01*
Y176123D01*
X453242Y122882D01*
X452751Y123259D01*
X451982Y123578D01*
X451157Y123686D01*
X450333Y123578D01*
X449564Y123259D01*
X448904Y122753D01*
X448398Y122093D01*
X448080Y121325D01*
X447971Y120500D01*
X448080Y119675D01*
X448398Y118907D01*
X448904Y118247D01*
X449564Y117741D01*
X450333Y117422D01*
X451157Y117314D01*
X451982Y117422D01*
X452751Y117741D01*
X453410Y118247D01*
X453917Y118907D01*
X454235Y119675D01*
X454344Y120500D01*
X454240Y121285D01*
X508049Y175094D01*
X509037Y176082D01*
X659448D01*
X659702Y175702D01*
X660298Y175304D01*
X661000Y175165D01*
X661702Y175304D01*
X662298Y175702D01*
X662696Y176298D01*
X662835Y177000D01*
X662696Y177702D01*
X662298Y178298D01*
X661702Y178696D01*
X661000Y178835D01*
X660298Y178696D01*
X659702Y178298D01*
X659448Y177918D01*
X508657D01*
X508318Y178197D01*
Y204648D01*
X508698Y204902D01*
X509096Y205498D01*
X509235Y206200D01*
X509096Y206902D01*
X508698Y207498D01*
X508102Y207896D01*
X507400Y208035D01*
D02*
G37*
G36*
X531500Y167659D02*
X530225Y167533D01*
X528998Y167161D01*
X527868Y166557D01*
X526878Y165744D01*
X526065Y164754D01*
X525461Y163624D01*
X525089Y162397D01*
X524963Y161122D01*
X525089Y159847D01*
X525461Y158620D01*
X526065Y157490D01*
X526878Y156500D01*
X527868Y155687D01*
X528998Y155083D01*
X530225Y154711D01*
X531500Y154585D01*
X532775Y154711D01*
X534002Y155083D01*
X535132Y155687D01*
X536122Y156500D01*
X536935Y157490D01*
X537539Y158620D01*
X537911Y159847D01*
X538037Y161122D01*
X537911Y162397D01*
X537539Y163624D01*
X536935Y164754D01*
X536122Y165744D01*
X535132Y166557D01*
X534002Y167161D01*
X532775Y167533D01*
X531500Y167659D01*
D02*
G37*
G36*
X357500Y156964D02*
Y154000D01*
X360464D01*
X360410Y154414D01*
X360057Y155265D01*
X359496Y155996D01*
X358765Y156557D01*
X357914Y156910D01*
X357500Y156964D01*
D02*
G37*
G36*
X356500D02*
X356086Y156910D01*
X355235Y156557D01*
X354504Y155996D01*
X353943Y155265D01*
X353590Y154414D01*
X353536Y154000D01*
X356500D01*
Y156964D01*
D02*
G37*
G36*
X405000Y155597D02*
Y152500D01*
X408097D01*
X408038Y152948D01*
X407672Y153832D01*
X407090Y154590D01*
X406332Y155173D01*
X405448Y155538D01*
X405000Y155597D01*
D02*
G37*
G36*
X404000D02*
X403552Y155538D01*
X402668Y155173D01*
X401910Y154590D01*
X401328Y153832D01*
X400962Y152948D01*
X400903Y152500D01*
X404000D01*
Y155597D01*
D02*
G37*
G36*
X360464Y153000D02*
X357500D01*
Y150036D01*
X357914Y150090D01*
X358765Y150443D01*
X359496Y151004D01*
X360057Y151735D01*
X360410Y152586D01*
X360464Y153000D01*
D02*
G37*
G36*
X356500D02*
X353536D01*
X353590Y152586D01*
X353943Y151735D01*
X354504Y151004D01*
X355235Y150443D01*
X356086Y150090D01*
X356500Y150036D01*
Y153000D01*
D02*
G37*
G36*
X550504Y156201D02*
Y149811D01*
X556894D01*
X556810Y150665D01*
X556415Y151966D01*
X555773Y153166D01*
X554911Y154218D01*
X553859Y155080D01*
X552659Y155722D01*
X551358Y156117D01*
X550504Y156201D01*
D02*
G37*
G36*
X549504D02*
X548650Y156117D01*
X547349Y155722D01*
X546149Y155080D01*
X545097Y154218D01*
X544235Y153166D01*
X543593Y151966D01*
X543198Y150665D01*
X543114Y149811D01*
X549504D01*
Y156201D01*
D02*
G37*
G36*
X408097Y151500D02*
X405000D01*
Y148403D01*
X405448Y148462D01*
X406332Y148828D01*
X407090Y149410D01*
X407672Y150168D01*
X408038Y151052D01*
X408097Y151500D01*
D02*
G37*
G36*
X404000D02*
X400903D01*
X400962Y151052D01*
X401328Y150168D01*
X401910Y149410D01*
X402668Y148828D01*
X403552Y148462D01*
X404000Y148403D01*
Y151500D01*
D02*
G37*
G36*
X436000Y158335D02*
X435298Y158196D01*
X434702Y157798D01*
X434304Y157202D01*
X434165Y156500D01*
X434304Y155798D01*
X434702Y155202D01*
X435298Y154804D01*
X436000Y154665D01*
X436702Y154804D01*
X437298Y155202D01*
X437552Y155582D01*
X454020D01*
X459654Y149948D01*
X459565Y149500D01*
X459704Y148798D01*
X460102Y148202D01*
X460698Y147804D01*
X461400Y147665D01*
X462102Y147804D01*
X462698Y148202D01*
X463096Y148798D01*
X463235Y149500D01*
X463096Y150202D01*
X462698Y150798D01*
X462102Y151196D01*
X461400Y151335D01*
X460952Y151246D01*
X455049Y157149D01*
X454751Y157348D01*
X454400Y157418D01*
X437552D01*
X437298Y157798D01*
X436702Y158196D01*
X436000Y158335D01*
D02*
G37*
G36*
X556894Y148811D02*
X550504D01*
Y142421D01*
X551358Y142505D01*
X552659Y142900D01*
X553859Y143542D01*
X554911Y144404D01*
X555773Y145456D01*
X556415Y146656D01*
X556810Y147957D01*
X556894Y148811D01*
D02*
G37*
G36*
X549504D02*
X543114D01*
X543198Y147957D01*
X543593Y146656D01*
X544235Y145456D01*
X545097Y144404D01*
X546149Y143542D01*
X547349Y142900D01*
X548650Y142505D01*
X549504Y142421D01*
Y148811D01*
D02*
G37*
G36*
X450000Y144964D02*
Y142000D01*
X452964D01*
X452910Y142414D01*
X452557Y143265D01*
X451996Y143996D01*
X451265Y144557D01*
X450414Y144910D01*
X450000Y144964D01*
D02*
G37*
G36*
X449000D02*
X448586Y144910D01*
X447735Y144557D01*
X447004Y143996D01*
X446443Y143265D01*
X446090Y142414D01*
X446036Y142000D01*
X449000D01*
Y144964D01*
D02*
G37*
G36*
X414500Y145260D02*
X413656Y145149D01*
X412870Y144823D01*
X412195Y144305D01*
X411677Y143630D01*
X411351Y142844D01*
X411240Y142000D01*
X411351Y141156D01*
X411677Y140370D01*
X412195Y139695D01*
X412870Y139177D01*
X413656Y138851D01*
X414500Y138740D01*
X415344Y138851D01*
X416130Y139177D01*
X416805Y139695D01*
X417323Y140370D01*
X417649Y141156D01*
X417760Y142000D01*
X417649Y142844D01*
X417323Y143630D01*
X416805Y144305D01*
X416130Y144823D01*
X415344Y145149D01*
X414500Y145260D01*
D02*
G37*
G36*
X394500D02*
X393656Y145149D01*
X392870Y144823D01*
X392195Y144305D01*
X391677Y143630D01*
X391351Y142844D01*
X391240Y142000D01*
X391351Y141156D01*
X391677Y140370D01*
X392195Y139695D01*
X392870Y139177D01*
X393656Y138851D01*
X394500Y138740D01*
X395344Y138851D01*
X396130Y139177D01*
X396805Y139695D01*
X397323Y140370D01*
X397649Y141156D01*
X397760Y142000D01*
X397649Y142844D01*
X397323Y143630D01*
X396805Y144305D01*
X396130Y144823D01*
X395344Y145149D01*
X394500Y145260D01*
D02*
G37*
G36*
X452964Y141000D02*
X450000D01*
Y138036D01*
X450414Y138090D01*
X451265Y138443D01*
X451996Y139004D01*
X452557Y139735D01*
X452910Y140586D01*
X452964Y141000D01*
D02*
G37*
G36*
X449000D02*
X446036D01*
X446090Y140586D01*
X446443Y139735D01*
X447004Y139004D01*
X447735Y138443D01*
X448586Y138090D01*
X449000Y138036D01*
Y141000D01*
D02*
G37*
G36*
X532000Y144390D02*
Y138000D01*
X538390D01*
X538306Y138854D01*
X537911Y140155D01*
X537269Y141355D01*
X536407Y142407D01*
X535355Y143270D01*
X534155Y143911D01*
X532854Y144306D01*
X532000Y144390D01*
D02*
G37*
G36*
X531000D02*
X530146Y144306D01*
X528845Y143911D01*
X527645Y143270D01*
X526593Y142407D01*
X525731Y141355D01*
X525089Y140155D01*
X524694Y138854D01*
X524610Y138000D01*
X531000D01*
Y144390D01*
D02*
G37*
G36*
X352500Y136464D02*
Y133500D01*
X355464D01*
X355410Y133914D01*
X355057Y134765D01*
X354496Y135496D01*
X353765Y136057D01*
X352914Y136410D01*
X352500Y136464D01*
D02*
G37*
G36*
X351500D02*
X351086Y136410D01*
X350235Y136057D01*
X349504Y135496D01*
X348943Y134765D01*
X348590Y133914D01*
X348536Y133500D01*
X351500D01*
Y136464D01*
D02*
G37*
G36*
X538390Y137000D02*
X532000D01*
Y130610D01*
X532854Y130694D01*
X534155Y131089D01*
X535355Y131730D01*
X536407Y132593D01*
X537269Y133645D01*
X537911Y134845D01*
X538306Y136146D01*
X538390Y137000D01*
D02*
G37*
G36*
X531000D02*
X524610D01*
X524694Y136146D01*
X525089Y134845D01*
X525731Y133645D01*
X526593Y132593D01*
X527645Y131730D01*
X528845Y131089D01*
X530146Y130694D01*
X531000Y130610D01*
Y137000D01*
D02*
G37*
G36*
X355464Y132500D02*
X352500D01*
Y129536D01*
X352914Y129590D01*
X353765Y129943D01*
X354496Y130504D01*
X355057Y131235D01*
X355410Y132086D01*
X355464Y132500D01*
D02*
G37*
G36*
X351500D02*
X348536D01*
X348590Y132086D01*
X348943Y131235D01*
X349504Y130504D01*
X350235Y129943D01*
X351086Y129590D01*
X351500Y129536D01*
Y132500D01*
D02*
G37*
G36*
X436000Y130964D02*
Y128000D01*
X438964D01*
X438910Y128414D01*
X438557Y129265D01*
X437996Y129996D01*
X437265Y130557D01*
X436414Y130910D01*
X436000Y130964D01*
D02*
G37*
G36*
X435000D02*
X434586Y130910D01*
X433735Y130557D01*
X433004Y129996D01*
X432443Y129265D01*
X432090Y128414D01*
X432036Y128000D01*
X435000D01*
Y130964D01*
D02*
G37*
G36*
X438964Y127000D02*
X436000D01*
Y124036D01*
X436414Y124090D01*
X437265Y124443D01*
X437996Y125004D01*
X438557Y125735D01*
X438910Y126586D01*
X438964Y127000D01*
D02*
G37*
G36*
X435000D02*
X432036D01*
X432090Y126586D01*
X432443Y125735D01*
X433004Y125004D01*
X433735Y124443D01*
X434586Y124090D01*
X435000Y124036D01*
Y127000D01*
D02*
G37*
G36*
X461000Y123686D02*
X460175Y123578D01*
X459407Y123259D01*
X458747Y122753D01*
X458241Y122093D01*
X457922Y121325D01*
X457814Y120500D01*
X457922Y119675D01*
X458241Y118907D01*
X458747Y118247D01*
X459407Y117741D01*
X460175Y117422D01*
X461000Y117314D01*
X461825Y117422D01*
X462593Y117741D01*
X463253Y118247D01*
X463511Y118582D01*
X560148D01*
X560402Y118202D01*
X560998Y117804D01*
X561700Y117665D01*
X562402Y117804D01*
X562998Y118202D01*
X563396Y118798D01*
X563535Y119500D01*
X563396Y120202D01*
X562998Y120798D01*
X562402Y121196D01*
X561700Y121335D01*
X560998Y121196D01*
X560402Y120798D01*
X560148Y120418D01*
X464259D01*
X464186Y120500D01*
X464078Y121325D01*
X463759Y122093D01*
X463253Y122753D01*
X462593Y123259D01*
X461825Y123578D01*
X461000Y123686D01*
D02*
G37*
G36*
X441315D02*
X440490Y123578D01*
X439722Y123259D01*
X439062Y122753D01*
X438556Y122093D01*
X438237Y121325D01*
X438129Y120500D01*
X438237Y119675D01*
X438556Y118907D01*
X439062Y118247D01*
X439722Y117741D01*
X440490Y117422D01*
X441315Y117314D01*
X442140Y117422D01*
X442908Y117741D01*
X443568Y118247D01*
X444074Y118907D01*
X444393Y119675D01*
X444501Y120500D01*
X444393Y121325D01*
X444074Y122093D01*
X443568Y122753D01*
X442908Y123259D01*
X442140Y123578D01*
X441315Y123686D01*
D02*
G37*
%LPD*%
G36*
X612965Y360850D02*
X613104Y360148D01*
X613502Y359552D01*
X614098Y359154D01*
X614800Y359015D01*
X615502Y359154D01*
X616098Y359552D01*
X616496Y360148D01*
X616764Y360265D01*
X620320Y359733D01*
X636362Y343691D01*
X636329Y343418D01*
X635795Y343173D01*
X635761Y343196D01*
X635059Y343335D01*
X634357Y343196D01*
X633761Y342798D01*
X633363Y342202D01*
X633224Y341500D01*
X633313Y341052D01*
X632949Y340688D01*
X632487Y340879D01*
Y343386D01*
X632417Y343737D01*
X632219Y344035D01*
X619935Y356318D01*
X619637Y356517D01*
X619286Y356587D01*
X613710D01*
X611046Y359252D01*
X611135Y359700D01*
X610999Y360382D01*
X610991Y360471D01*
X611254Y360882D01*
X612938D01*
X612965Y360850D01*
D02*
G37*
D77*
X666448Y338000D02*
X667000Y337449D01*
X666000Y338000D02*
X666448D01*
X667000Y330000D02*
Y337449D01*
X661500Y330800D02*
Y338000D01*
X649500Y318800D02*
X661500Y330800D01*
X605900Y318800D02*
X649500D01*
X507400Y175743D02*
X508657Y177000D01*
X451157Y119500D02*
X507400Y175743D01*
X485691Y407291D02*
X657500D01*
X443000Y364600D02*
X485691Y407291D01*
X499300Y364600D02*
X618050D01*
X619112Y363538D01*
X624200Y363406D02*
Y365000D01*
X622500Y366700D02*
X624200Y365000D01*
X493400Y366700D02*
X622500D01*
X613850Y361800D02*
X614800Y360850D01*
X516850Y361800D02*
X613850D01*
X502500Y347450D02*
X516850Y361800D01*
X502500Y315500D02*
Y347450D01*
X508400Y346500D02*
X597200D01*
X599450Y348750D01*
X611200D01*
X614750Y345200D01*
X504600Y298100D02*
X551100Y344600D01*
X602000D01*
X669472Y428500D02*
X683300Y442328D01*
X443028Y487000D02*
X499500D01*
X439000Y482972D02*
X443028Y487000D01*
X378500Y482972D02*
X439000D01*
X499000Y244000D02*
X561000Y306000D01*
Y312800D02*
X610100D01*
X657300Y226300D02*
X662500D01*
X672900Y236700D01*
Y341400D01*
X643900Y370400D02*
X672900Y341400D01*
X643900Y370400D02*
Y380900D01*
X584949Y354500D02*
X587854Y351594D01*
X550000Y354500D02*
X584949D01*
X587854Y351594D02*
X618699D01*
X438600Y213500D02*
X545500D01*
X395722Y170622D02*
X438600Y213500D01*
X643750Y334600D02*
X644250Y335100D01*
X631850Y334600D02*
X643750D01*
X631570Y334880D02*
X631850Y334600D01*
X631570Y334880D02*
Y343386D01*
X619286Y355670D02*
X631570Y343386D01*
X613330Y355670D02*
X619286D01*
X609300Y359700D02*
X613330Y355670D01*
X488300Y341700D02*
X509800Y363200D01*
X616650D01*
X616900Y361172D01*
X620755Y360595D01*
X637500Y343850D01*
Y340350D02*
Y343850D01*
X635050Y337900D02*
X637500Y340350D01*
X502500Y292500D02*
X532800Y322800D01*
X639700D01*
X647200Y330300D01*
Y335200D01*
X645000Y337400D02*
X647200Y335200D01*
X638700Y337400D02*
X645000D01*
X637100Y335800D02*
X638700Y337400D01*
X633050Y335800D02*
X637100D01*
X632950Y335900D02*
X633050Y335800D01*
X632950Y335900D02*
Y339391D01*
X635059Y341500D01*
X596854Y395146D02*
X637104D01*
X646000Y386250D01*
Y374500D02*
Y386250D01*
Y374500D02*
X663000Y357500D01*
X461000Y119500D02*
X561700D01*
X508657Y177000D02*
X661000D01*
X550300Y318100D02*
X603354D01*
X507400Y175743D02*
Y206200D01*
X630816Y331850D02*
X645100D01*
X618699Y343966D02*
X630816Y331850D01*
X618699Y343966D02*
Y351594D01*
X436000Y156500D02*
X454400D01*
X461400Y149500D01*
X512500Y240750D02*
Y240900D01*
X511250Y239500D02*
X512500Y240750D01*
X422035Y239500D02*
X511250D01*
X378500Y195965D02*
X422035Y239500D01*
X648450Y337985D02*
Y346263D01*
X624777Y369936D02*
X648450Y346263D01*
X645100Y324600D02*
X650550Y330050D01*
Y349650D01*
X625300Y374900D02*
X650550Y349650D01*
X672126Y360300D02*
X679200D01*
X664326Y368100D02*
X672126Y360300D01*
X663000Y357500D02*
X682200D01*
X648852Y378600D02*
X690400D01*
X422100Y409400D02*
X633100D01*
X408000Y395300D02*
X422100Y409400D01*
D78*
X499500Y390150D02*
D03*
Y487000D02*
D03*
D79*
X378500Y480508D02*
D03*
Y193500D02*
D03*
D80*
Y446472D02*
D03*
Y227535D02*
D03*
D81*
X461000Y120500D02*
D03*
X451157D02*
D03*
X441315D02*
D03*
D82*
X394500Y142000D02*
D03*
X404500Y152000D02*
D03*
X414500Y142000D02*
D03*
D83*
X550004Y149311D02*
D03*
X531500Y137500D02*
D03*
Y161122D02*
D03*
D84*
X584500Y383500D02*
D03*
X564500Y380500D02*
D03*
X572000Y336500D02*
D03*
X681500Y260500D02*
D03*
X592500Y339500D02*
D03*
X586000Y302000D02*
D03*
X548500Y281000D02*
D03*
X569500Y301500D02*
D03*
X352000Y133000D02*
D03*
X357000Y153500D02*
D03*
X435500Y127500D02*
D03*
X449500Y141500D02*
D03*
X600500Y223000D02*
D03*
X555000Y206500D02*
D03*
X662000Y306000D02*
D03*
D85*
X666000Y338000D02*
D03*
X667000Y330000D02*
D03*
X661500Y338000D02*
D03*
X657500Y407291D02*
D03*
X443000Y364600D02*
D03*
X499300D02*
D03*
X619112Y363538D02*
D03*
X624200Y363406D02*
D03*
X493400Y366700D02*
D03*
X614800Y360850D02*
D03*
X502500Y315500D02*
D03*
X508400Y346500D02*
D03*
X614750Y345200D02*
D03*
X504600Y298100D02*
D03*
X602000Y344600D02*
D03*
X683300Y442328D02*
D03*
X669472Y428500D02*
D03*
X561000Y306000D02*
D03*
X499000Y244000D02*
D03*
X610100Y312800D02*
D03*
X561000D02*
D03*
X657300Y226300D02*
D03*
X643900Y380900D02*
D03*
X550000Y354500D02*
D03*
X587854Y351594D02*
D03*
X545500Y213500D02*
D03*
X395722Y170622D02*
D03*
X644250Y335100D02*
D03*
X609300Y359700D02*
D03*
X488300Y341700D02*
D03*
X635050Y337900D02*
D03*
X502500Y292500D02*
D03*
X635059Y341500D02*
D03*
X596854Y395146D02*
D03*
X663000Y357500D02*
D03*
X561700Y119500D02*
D03*
X661000Y177000D02*
D03*
X603354Y318100D02*
D03*
X550300D02*
D03*
X605900Y318800D02*
D03*
X507400Y206200D02*
D03*
X645100Y331850D02*
D03*
X618699Y351594D02*
D03*
X436000Y156500D02*
D03*
X461400Y149500D02*
D03*
X512500Y240900D02*
D03*
X648450Y337985D02*
D03*
X624777Y369936D02*
D03*
X645100Y324600D02*
D03*
X625300Y374900D02*
D03*
X679200Y360300D02*
D03*
X664326Y368100D02*
D03*
X682200Y357500D02*
D03*
X690400Y378600D02*
D03*
X648852D02*
D03*
X633100Y409400D02*
D03*
X408000Y395300D02*
D03*
M02*
