M48
;Layer_Color=9474304
;FILE_FORMAT=2:5
INCH,LZ
;TYPE=PLATED
T1F00S00C0.01200
T2F00S00C0.02800
T3F00S00C0.03071
T4F00S00C0.03150
T5F00S00C0.07480
T6F00S00C0.07992
T7F00S00C0.10906
;TYPE=NON_PLATED
T8F00S00C0.12598
%
T01
X04614Y01495
X05617Y01195
X0661Y0177
X06573Y02263
X05455Y02135
X05074Y02062
X05125Y02409
X0499Y0244
X05025Y02925
X05046Y02981
X0561Y0306
X0436Y01565
X0395722Y0170622
X0408Y03953
X0443Y03646
X04934Y03667
X04993Y03646
X05084Y03465
X04883Y03417
X05025Y03155
X05503Y03181
X0561Y03128
X0603354Y03181
X06059Y03188
X06101Y03128
X061475Y03452
X0618699Y0351594
X0619112Y0363538
X06242Y0363406
X0624777Y0369936
X06148Y036085
X06093Y03597
X0602Y03446
X0587854Y0351594
X055Y03545
X0596854Y0395146
X06253Y03749
X06439Y03809
X0648852Y03786
X0664326Y03681
X0663Y03575
X06792Y03603
X06822Y03575
X06904Y03786
X06575Y0407291
X06331Y04094
X0669472Y04285
X06833Y0442328
X0666Y0338
X06615
X064845Y0337985
X064425Y03351
X06451Y033185
Y03246
X063505Y03379
X0635059Y03415
X0667Y033
T02
X0352Y0133
X0357Y01535
X04355Y01275
X04495Y01415
X06815Y02605
X0662Y0306
X0586Y0302
X05695Y03015
X05485Y0281
X0555Y02065
X06005Y0223
X05925Y03395
X0572Y03365
X05645Y03805
X05845Y03835
T03
X03945Y0142
X04045Y0152
X04145Y0142
T04
X0441315Y01205
X0451157
X0461
T05
X05315Y01375
X0550004Y0149311
X05315Y0161122
T06
X04995Y039015
Y0487
T07
X03785Y01935
Y0480508
T08
X03785Y0227535
Y0446472
M30
