G04*
G04 #@! TF.GenerationSoftware,Altium Limited,Altium Designer,19.1.7 (138)*
G04*
G04 Layer_Color=65535*
%FSLAX25Y25*%
%MOIN*%
G70*
G01*
G75*
%ADD10C,0.00787*%
%ADD11C,0.00984*%
%ADD12C,0.00394*%
%ADD13C,0.01000*%
%ADD14C,0.00400*%
D10*
X378500Y493106D02*
G03*
X378500Y492713I0J-197D01*
G01*
D02*
G03*
X378500Y493106I0J197D01*
G01*
D02*
G03*
X378500Y492713I0J-197D01*
G01*
X389539Y141606D02*
G03*
X389146Y141606I-197J0D01*
G01*
D02*
G03*
X389539Y141606I197J0D01*
G01*
D02*
G03*
X389146Y141606I-197J0D01*
G01*
X676224Y328374D02*
G03*
X677012Y328374I394J0D01*
G01*
D02*
G03*
X676224Y328374I-394J0D01*
G01*
X532122Y169197D02*
G03*
X532122Y169197I-468J0D01*
G01*
X621264Y471929D02*
G03*
X621264Y471142I0J-394D01*
G01*
D02*
G03*
X621264Y471929I0J394D01*
G01*
X530264Y241843D02*
G03*
X530264Y241055I0J-394D01*
G01*
D02*
G03*
X530264Y241843I0J394D01*
G01*
X589555Y210642D02*
X596445D01*
X587488Y210150D02*
Y235740D01*
X573709D02*
X587488D01*
X573709Y210150D02*
Y235740D01*
Y210150D02*
X587488D01*
X422039Y156039D02*
X426961D01*
X428339Y144032D02*
Y155449D01*
Y144032D02*
X430504D01*
Y155449D01*
X428339D02*
X430504D01*
X548429Y107185D02*
Y135531D01*
X512996Y107185D02*
X548429D01*
X512996D02*
Y163878D01*
X511047Y209819D02*
Y212181D01*
X459240Y155209D02*
X461602D01*
Y143791D02*
Y155209D01*
X459240Y143791D02*
X461602D01*
X459240D02*
Y155209D01*
X453138Y155799D02*
X457862D01*
X507441Y230957D02*
Y240945D01*
X512559Y234055D02*
Y240945D01*
X336094Y137232D02*
Y147075D01*
X347906Y137232D02*
Y147075D01*
D11*
X362177Y146716D02*
G03*
X362177Y146716I-492J0D01*
G01*
X659764Y344705D02*
G03*
X659764Y344705I-492J0D01*
G01*
X666720Y480728D02*
G03*
X666720Y480728I-492J0D01*
G01*
D12*
X507374Y484067D02*
X548319D01*
Y393083D02*
Y484067D01*
X507374Y393083D02*
X548319D01*
X469500D02*
X489657D01*
X450681Y386803D02*
X469500Y393083D01*
X450681Y386803D02*
Y490346D01*
X469972Y484067D01*
X491626D01*
X419642Y184051D02*
Y489957D01*
X337358Y184051D02*
X419642D01*
X337358D02*
Y489957D01*
X419642D01*
X434425Y106720D02*
X467890D01*
Y124437D01*
X434425D02*
X467890D01*
X434425Y106720D02*
Y124437D01*
X391508Y128102D02*
Y137079D01*
Y128102D02*
Y137079D01*
Y128102D02*
X417492D01*
X391508D02*
X417492D01*
Y137079D01*
Y128102D02*
Y137079D01*
Y146921D02*
Y155622D01*
Y146921D02*
Y155622D01*
X409421D02*
X417492D01*
X409421D02*
Y155780D01*
X417492D01*
Y155622D02*
Y155780D01*
X391508Y155622D02*
X399579D01*
X391508D02*
X399579D01*
X391508Y146921D02*
Y155622D01*
Y146921D02*
Y155622D01*
X679547Y368925D02*
Y372075D01*
X685453Y368925D02*
Y372075D01*
X670327Y315374D02*
X672693D01*
X670382Y325614D02*
X672728D01*
X677992Y321331D02*
X678016Y319717D01*
X664973Y321280D02*
X665004Y319701D01*
X621500Y457146D02*
X631500D01*
X621500D02*
X621657Y467028D01*
X641500Y457146D02*
Y467028D01*
X631500D02*
X641500D01*
X530500Y227059D02*
X540500D01*
X530500D02*
X530657Y236941D01*
X550500Y227059D02*
Y236941D01*
X540500D02*
X550500D01*
D13*
X662468Y254465D02*
X670343D01*
X662468Y246591D02*
Y254465D01*
Y246591D02*
X678217D01*
Y234780D02*
Y246591D01*
X662468Y234780D02*
X678217D01*
X662468Y226906D02*
Y234780D01*
Y226906D02*
X678217D01*
Y215094D02*
Y226906D01*
X662468Y215094D02*
X678217D01*
X662468Y207220D02*
Y215094D01*
Y207220D02*
X678217D01*
Y195409D02*
Y207220D01*
X652626Y195409D02*
X678217D01*
X652626D02*
Y197378D01*
X668374D01*
Y205252D01*
X652626D02*
X668374D01*
X652626D02*
Y217063D01*
X668374D01*
Y224937D01*
X652626D02*
X668374D01*
X652626D02*
Y236748D01*
X668374D01*
Y244622D01*
X652626D02*
X668374D01*
X652626D02*
Y256433D01*
X678217D01*
Y254465D02*
Y256433D01*
X670343Y254465D02*
X678217D01*
X493968Y345965D02*
X501843D01*
X493968Y338091D02*
Y345965D01*
Y338091D02*
X509717D01*
Y326280D02*
Y338091D01*
X493968Y326280D02*
X509717D01*
X493968Y318406D02*
Y326280D01*
Y318406D02*
X509717D01*
Y306594D02*
Y318406D01*
X493968Y306594D02*
X509717D01*
X493968Y298720D02*
Y306594D01*
Y298720D02*
X509717D01*
Y286909D02*
Y298720D01*
X484126Y286909D02*
X509717D01*
X484126D02*
Y288878D01*
X499874D01*
Y296752D01*
X484126D02*
X499874D01*
X484126D02*
Y308563D01*
X499874D01*
Y316437D01*
X484126D02*
X499874D01*
X484126D02*
Y328248D01*
X499874D01*
Y336122D01*
X484126D02*
X499874D01*
X484126D02*
Y347933D01*
X509717D01*
Y345965D02*
Y347933D01*
X501843Y345965D02*
X509717D01*
X480969Y247465D02*
X488843D01*
X480969Y239591D02*
Y247465D01*
Y239591D02*
X496717D01*
Y227780D02*
Y239591D01*
X480969Y227780D02*
X496717D01*
X480969Y219906D02*
Y227780D01*
Y219906D02*
X496717D01*
Y208094D02*
Y219906D01*
X480969Y208094D02*
X496717D01*
X480969Y200220D02*
Y208094D01*
Y200220D02*
X496717D01*
Y188409D02*
Y200220D01*
X471126Y188409D02*
X496717D01*
X471126D02*
Y190378D01*
X486874D01*
Y198252D01*
X471126D02*
X486874D01*
X471126D02*
Y210063D01*
X486874D01*
Y217937D01*
X471126D02*
X486874D01*
X471126D02*
Y229748D01*
X486874D01*
Y237622D01*
X471126D02*
X486874D01*
X471126D02*
Y249433D01*
X496717D01*
Y247465D02*
Y249433D01*
X488843Y247465D02*
X496717D01*
X662969Y180465D02*
X670843D01*
X662969Y172591D02*
Y180465D01*
Y172591D02*
X678717D01*
Y160780D02*
Y172591D01*
X662969Y160780D02*
X678717D01*
X662969Y152906D02*
Y160780D01*
Y152906D02*
X678717D01*
Y141094D02*
Y152906D01*
X662969Y141094D02*
X678717D01*
X662969Y133220D02*
Y141094D01*
Y133220D02*
X678717D01*
Y121409D02*
Y133220D01*
X653126Y121409D02*
X678717D01*
X653126D02*
Y123378D01*
X668874D01*
Y131252D01*
X653126D02*
X668874D01*
X653126D02*
Y143063D01*
X668874D01*
Y150937D01*
X653126D02*
X668874D01*
X653126D02*
Y162748D01*
X668874D01*
Y170622D01*
X653126D02*
X668874D01*
X653126D02*
Y182433D01*
X678717D01*
Y180465D02*
Y182433D01*
X670843Y180465D02*
X678717D01*
X610999Y338498D02*
X609999Y339498D01*
X608000D01*
X607000Y338498D01*
Y334500D01*
X608000Y333500D01*
X609999D01*
X610999Y334500D01*
X612998Y333500D02*
X614997D01*
X613998D01*
Y339498D01*
X612998Y338498D01*
X617996D02*
X618996Y339498D01*
X620996D01*
X621995Y338498D01*
Y337499D01*
X620996Y336499D01*
X621995Y335499D01*
Y334500D01*
X620996Y333500D01*
X618996D01*
X617996Y334500D01*
Y335499D01*
X618996Y336499D01*
X617996Y337499D01*
Y338498D01*
X618996Y336499D02*
X620996D01*
X558500Y483998D02*
Y479000D01*
X559500Y478000D01*
X561499D01*
X562499Y479000D01*
Y483998D01*
X568497Y478000D02*
X564498D01*
X568497Y481999D01*
Y482998D01*
X567497Y483998D01*
X565498D01*
X564498Y482998D01*
X425500Y456034D02*
Y450035D01*
X428499D01*
X429499Y451035D01*
Y452035D01*
X428499Y453034D01*
X425500D01*
X428499D01*
X429499Y454034D01*
Y455034D01*
X428499Y456034D01*
X425500D01*
X431498D02*
X435497D01*
X433497D01*
Y450035D01*
X437496D02*
X439496D01*
X438496D01*
Y456034D01*
X437496Y455034D01*
X561500Y244498D02*
X563499D01*
X562500D01*
Y238500D01*
X561500D01*
X563499D01*
X570497Y243498D02*
X569497Y244498D01*
X567498D01*
X566498Y243498D01*
Y239500D01*
X567498Y238500D01*
X569497D01*
X570497Y239500D01*
X572496Y243498D02*
X573496Y244498D01*
X575495D01*
X576495Y243498D01*
Y242499D01*
X575495Y241499D01*
X574496D01*
X575495D01*
X576495Y240499D01*
Y239500D01*
X575495Y238500D01*
X573496D01*
X572496Y239500D01*
X559999Y206998D02*
X558999Y207998D01*
X557000D01*
X556000Y206998D01*
Y203000D01*
X557000Y202000D01*
X558999D01*
X559999Y203000D01*
X561998Y202000D02*
X563997D01*
X562998D01*
Y207998D01*
X561998Y206998D01*
X566996Y202000D02*
X568996D01*
X567996D01*
Y207998D01*
X566996Y206998D01*
X427000Y165498D02*
Y160500D01*
X428000Y159500D01*
X429999D01*
X430999Y160500D01*
Y165498D01*
X432998Y159500D02*
X434997D01*
X433998D01*
Y165498D01*
X432998Y164498D01*
X421500Y125000D02*
Y130998D01*
X424499D01*
X425499Y129998D01*
Y127999D01*
X424499Y126999D01*
X421500D01*
X423499D02*
X425499Y125000D01*
X430497D02*
Y130998D01*
X427498Y127999D01*
X431497D01*
X451499Y133498D02*
X450499Y134498D01*
X448500D01*
X447500Y133498D01*
Y132499D01*
X448500Y131499D01*
X450499D01*
X451499Y130499D01*
Y129500D01*
X450499Y128500D01*
X448500D01*
X447500Y129500D01*
X453498Y133498D02*
X454498Y134498D01*
X456497D01*
X457497Y133498D01*
Y132499D01*
X456497Y131499D01*
X455497D01*
X456497D01*
X457497Y130499D01*
Y129500D01*
X456497Y128500D01*
X454498D01*
X453498Y129500D01*
X395500Y166498D02*
Y162499D01*
X397499Y160500D01*
X399499Y162499D01*
Y166498D01*
X401498Y160500D02*
Y166498D01*
X404497D01*
X405497Y165498D01*
Y163499D01*
X404497Y162499D01*
X401498D01*
X403497D02*
X405497Y160500D01*
X407496D02*
X409495D01*
X408496D01*
Y166498D01*
X407496Y165498D01*
X375500Y140998D02*
X377499D01*
X376500D01*
Y135000D01*
X375500D01*
X377499D01*
X384497Y139998D02*
X383497Y140998D01*
X381498D01*
X380498Y139998D01*
Y136000D01*
X381498Y135000D01*
X383497D01*
X384497Y136000D01*
X386496Y135000D02*
X388496D01*
X387496D01*
Y140998D01*
X386496Y139998D01*
X342999Y128498D02*
X341999Y129498D01*
X340000D01*
X339000Y128498D01*
Y124500D01*
X340000Y123500D01*
X341999D01*
X342999Y124500D01*
X344998Y123500D02*
X346997D01*
X345998D01*
Y129498D01*
X344998Y128498D01*
X375000Y123500D02*
Y129498D01*
X377999D01*
X378999Y128498D01*
Y126499D01*
X377999Y125499D01*
X375000D01*
X376999D02*
X378999Y123500D01*
X384997Y129498D02*
X382997Y128498D01*
X380998Y126499D01*
Y124500D01*
X381998Y123500D01*
X383997D01*
X384997Y124500D01*
Y125499D01*
X383997Y126499D01*
X380998D01*
X598711Y424597D02*
X597712Y425597D01*
X595712D01*
X594713Y424597D01*
Y420598D01*
X595712Y419598D01*
X597712D01*
X598711Y420598D01*
X600711Y419598D02*
X602710D01*
X601710D01*
Y425597D01*
X600711Y424597D01*
X609708Y425597D02*
X607708Y424597D01*
X605709Y422598D01*
Y420598D01*
X606709Y419598D01*
X608708D01*
X609708Y420598D01*
Y421598D01*
X608708Y422598D01*
X605709D01*
X625566Y422597D02*
X624566Y423596D01*
X622567D01*
X621567Y422597D01*
Y418598D01*
X622567Y417598D01*
X624566D01*
X625566Y418598D01*
X627565Y417598D02*
X629564D01*
X628565D01*
Y423596D01*
X627565Y422597D01*
X636562Y417598D02*
X632563D01*
X636562Y421597D01*
Y422597D01*
X635562Y423596D01*
X633563D01*
X632563Y422597D01*
X662000Y426000D02*
Y431998D01*
X664999D01*
X665999Y430998D01*
Y428999D01*
X664999Y427999D01*
X662000D01*
X663999D02*
X665999Y426000D01*
X667998Y430998D02*
X668998Y431998D01*
X670997D01*
X671997Y430998D01*
Y429999D01*
X670997Y428999D01*
X669997D01*
X670997D01*
X671997Y427999D01*
Y427000D01*
X670997Y426000D01*
X668998D01*
X667998Y427000D01*
X650500Y443000D02*
Y448998D01*
X653499D01*
X654499Y447998D01*
Y445999D01*
X653499Y444999D01*
X650500D01*
X652499D02*
X654499Y443000D01*
X660497D02*
X656498D01*
X660497Y446999D01*
Y447998D01*
X659497Y448998D01*
X657498D01*
X656498Y447998D01*
X683644Y415998D02*
X682645Y416998D01*
X680645D01*
X679646Y415998D01*
Y412000D01*
X680645Y411000D01*
X682645D01*
X683644Y412000D01*
X685644Y411000D02*
X687643D01*
X686643D01*
Y416998D01*
X685644Y415998D01*
X690642Y416998D02*
X694641D01*
Y415998D01*
X690642Y412000D01*
Y411000D01*
X677567Y387097D02*
Y386097D01*
X679566Y384098D01*
X681566Y386097D01*
Y387097D01*
X679566Y384098D02*
Y381098D01*
X687564D02*
X683565D01*
X687564Y385097D01*
Y386097D01*
X686564Y387097D01*
X684565D01*
X683565Y386097D01*
X680567Y349597D02*
X684566Y345598D01*
X680567D02*
X684566Y349597D01*
X680567Y347597D02*
X684566D01*
X682566Y345598D02*
Y349597D01*
X690564Y350596D02*
X688564D01*
X689564D01*
Y345598D01*
X688564Y344598D01*
X687565D01*
X686565Y345598D01*
X692563Y344598D02*
X694562D01*
X693563D01*
Y350596D01*
X692563Y349597D01*
X651500Y316998D02*
Y315998D01*
X653499Y313999D01*
X655499Y315998D01*
Y316998D01*
X653499Y313999D02*
Y311000D01*
X657498D02*
X659497D01*
X658498D01*
Y316998D01*
X657498Y315998D01*
X595999Y282998D02*
X594999Y283998D01*
X593000D01*
X592000Y282998D01*
Y279000D01*
X593000Y278000D01*
X594999D01*
X595999Y279000D01*
X601997Y283998D02*
X599997Y282998D01*
X597998Y280999D01*
Y279000D01*
X598998Y278000D01*
X600997D01*
X601997Y279000D01*
Y279999D01*
X600997Y280999D01*
X597998D01*
X478499Y114998D02*
X476500D01*
X475500Y113998D01*
Y110000D01*
X476500Y109000D01*
X478499D01*
X479499Y110000D01*
Y113998D01*
X478499Y114998D01*
X481498Y112999D02*
Y110000D01*
X482498Y109000D01*
X485497D01*
Y112999D01*
X488496Y113998D02*
Y112999D01*
X487496D01*
X489496D01*
X488496D01*
Y110000D01*
X489496Y109000D01*
X492494D02*
X494494D01*
X493494D01*
Y114998D01*
X492494D01*
X500492Y109000D02*
X498493D01*
X497493Y110000D01*
Y111999D01*
X498493Y112999D01*
X500492D01*
X501492Y111999D01*
Y110999D01*
X497493D01*
X504491Y113998D02*
Y112999D01*
X503491D01*
X505490D01*
X504491D01*
Y110000D01*
X505490Y109000D01*
X386500Y116498D02*
Y110500D01*
X389499D01*
X390499Y111500D01*
Y112499D01*
X389499Y113499D01*
X386500D01*
X389499D01*
X390499Y114499D01*
Y115498D01*
X389499Y116498D01*
X386500D01*
X393498Y114499D02*
X395497D01*
X396497Y113499D01*
Y110500D01*
X393498D01*
X392498Y111500D01*
X393498Y112499D01*
X396497D01*
X399496Y115498D02*
Y114499D01*
X398496D01*
X400495D01*
X399496D01*
Y111500D01*
X400495Y110500D01*
X404494Y115498D02*
Y114499D01*
X403495D01*
X405494D01*
X404494D01*
Y111500D01*
X405494Y110500D01*
X411492D02*
X409493D01*
X408493Y111500D01*
Y113499D01*
X409493Y114499D01*
X411492D01*
X412492Y113499D01*
Y112499D01*
X408493D01*
X414491Y114499D02*
Y110500D01*
Y112499D01*
X415491Y113499D01*
X416490Y114499D01*
X417490D01*
X420489D02*
Y111500D01*
X421489Y110500D01*
X424488D01*
Y109500D01*
X423488Y108501D01*
X422488D01*
X424488Y110500D02*
Y114499D01*
X457020Y164598D02*
X456020Y165598D01*
X454021D01*
X453021Y164598D01*
Y163599D01*
X454021Y162599D01*
X456020D01*
X457020Y161599D01*
Y160600D01*
X456020Y159600D01*
X454021D01*
X453021Y160600D01*
X459019Y159600D02*
X461019D01*
X460019D01*
Y165598D01*
X459019Y164598D01*
X553750Y351950D02*
Y357948D01*
X556749D01*
X557749Y356948D01*
Y354949D01*
X556749Y353949D01*
X553750D01*
X555749D02*
X557749Y351950D01*
X559748Y356948D02*
X560748Y357948D01*
X562747D01*
X563747Y356948D01*
Y355949D01*
X562747Y354949D01*
X563747Y353949D01*
Y352950D01*
X562747Y351950D01*
X560748D01*
X559748Y352950D01*
Y353949D01*
X560748Y354949D01*
X559748Y355949D01*
Y356948D01*
X560748Y354949D02*
X562747D01*
X526014Y195950D02*
Y201948D01*
X529013D01*
X530013Y200948D01*
Y198949D01*
X529013Y197949D01*
X526014D01*
X528013D02*
X530013Y195950D01*
X532012Y201948D02*
X536011D01*
Y200948D01*
X532012Y196950D01*
Y195950D01*
X370500Y162236D02*
Y168234D01*
X373499D01*
X374499Y167235D01*
Y165235D01*
X373499Y164236D01*
X370500D01*
X372499D02*
X374499Y162236D01*
X380497Y168234D02*
X376498D01*
Y165235D01*
X378497Y166235D01*
X379497D01*
X380497Y165235D01*
Y163236D01*
X379497Y162236D01*
X377498D01*
X376498Y163236D01*
X435764Y374500D02*
Y380498D01*
X438763D01*
X439762Y379498D01*
Y377499D01*
X438763Y376499D01*
X435764D01*
X437763D02*
X439762Y374500D01*
X441762D02*
X443761D01*
X442762D01*
Y380498D01*
X441762Y379498D01*
X592350Y307148D02*
Y301150D01*
X596349D01*
X602347D02*
X598348D01*
X602347Y305149D01*
Y306148D01*
X601347Y307148D01*
X599348D01*
X598348Y306148D01*
X336700Y156698D02*
Y150700D01*
X340699D01*
X342698D02*
X344697D01*
X343698D01*
Y156698D01*
X342698Y155698D01*
X657611Y191937D02*
X655611D01*
X656611D01*
Y186939D01*
X655611Y185939D01*
X654611D01*
X653612Y186939D01*
X662609Y185939D02*
Y191937D01*
X659610Y188938D01*
X663609D01*
X519999Y176998D02*
X517999D01*
X518999D01*
Y172000D01*
X517999Y171000D01*
X517000D01*
X516000Y172000D01*
X521998Y175998D02*
X522998Y176998D01*
X524997D01*
X525997Y175998D01*
Y174999D01*
X524997Y173999D01*
X523997D01*
X524997D01*
X525997Y172999D01*
Y172000D01*
X524997Y171000D01*
X522998D01*
X521998Y172000D01*
X475610Y258898D02*
X473611D01*
X474611D01*
Y253900D01*
X473611Y252900D01*
X472612D01*
X471612Y253900D01*
X477610Y257898D02*
X478610Y258898D01*
X480609D01*
X481609Y257898D01*
Y256899D01*
X480609Y255899D01*
X479609D01*
X480609D01*
X481609Y254899D01*
Y253900D01*
X480609Y252900D01*
X478610D01*
X477610Y253900D01*
X532699Y256098D02*
X530699D01*
X531699D01*
Y251100D01*
X530699Y250100D01*
X529700D01*
X528700Y251100D01*
X538697Y250100D02*
X534698D01*
X538697Y254099D01*
Y255098D01*
X537697Y256098D01*
X535698D01*
X534698Y255098D01*
X488599Y357398D02*
X486599D01*
X487599D01*
Y352400D01*
X486599Y351400D01*
X485600D01*
X484600Y352400D01*
X494597Y351400D02*
X490598D01*
X494597Y355399D01*
Y356398D01*
X493597Y357398D01*
X491598D01*
X490598Y356398D01*
X623749Y486135D02*
X621749D01*
X622749D01*
Y481136D01*
X621749Y480137D01*
X620750D01*
X619750Y481136D01*
X625748Y480137D02*
X627747D01*
X626748D01*
Y486135D01*
X625748Y485135D01*
X657099Y265898D02*
X655099D01*
X656099D01*
Y260900D01*
X655099Y259900D01*
X654100D01*
X653100Y260900D01*
X659098Y259900D02*
X661097D01*
X660098D01*
Y265898D01*
X659098Y264898D01*
X627933Y385900D02*
X629932D01*
X628933D01*
Y379902D01*
X627933D01*
X629932D01*
X636930Y384900D02*
X635930Y385900D01*
X633931D01*
X632932Y384900D01*
Y380901D01*
X633931Y379902D01*
X635930D01*
X636930Y380901D01*
X642928Y379902D02*
X638930D01*
X642928Y383900D01*
Y384900D01*
X641928Y385900D01*
X639929D01*
X638930Y384900D01*
X666159Y490685D02*
Y484687D01*
Y487686D01*
X670157D01*
Y490685D01*
Y484687D01*
X672157D02*
Y490685D01*
X674156Y488686D01*
X676155Y490685D01*
Y484687D01*
X678155D02*
X680154D01*
X679154D01*
Y490685D01*
X678155Y489685D01*
X509996Y223048D02*
X505997D01*
Y220049D01*
X507997D01*
X505997D01*
Y217050D01*
X511995Y223048D02*
Y217050D01*
X515994D01*
X517993D02*
X519993D01*
X518993D01*
Y223048D01*
X517993Y222048D01*
X506200Y254298D02*
Y248300D01*
X509199D01*
X510199Y249300D01*
Y253298D01*
X509199Y254298D01*
X506200D01*
X512198Y248300D02*
X514197D01*
X513198D01*
Y254298D01*
X512198Y253298D01*
X598749Y324748D02*
X597749Y325748D01*
X595750D01*
X594750Y324748D01*
Y320750D01*
X595750Y319750D01*
X597749D01*
X598749Y320750D01*
X600748Y319750D02*
X602747D01*
X601748D01*
Y325748D01*
X600748Y324748D01*
X609745Y325748D02*
X605746D01*
Y322749D01*
X607746Y323749D01*
X608745D01*
X609745Y322749D01*
Y320750D01*
X608745Y319750D01*
X606746D01*
X605746Y320750D01*
X575749Y325748D02*
X574749Y326748D01*
X572750D01*
X571750Y325748D01*
Y321750D01*
X572750Y320750D01*
X574749D01*
X575749Y321750D01*
X577748Y320750D02*
X579747D01*
X578748D01*
Y326748D01*
X577748Y325748D01*
X585745Y320750D02*
Y326748D01*
X582746Y323749D01*
X586745D01*
X548249Y315248D02*
X547249Y316248D01*
X545250D01*
X544250Y315248D01*
Y311250D01*
X545250Y310250D01*
X547249D01*
X548249Y311250D01*
X550248Y310250D02*
X552247D01*
X551248D01*
Y316248D01*
X550248Y315248D01*
X555246D02*
X556246Y316248D01*
X558246D01*
X559245Y315248D01*
Y314249D01*
X558246Y313249D01*
X557246D01*
X558246D01*
X559245Y312249D01*
Y311250D01*
X558246Y310250D01*
X556246D01*
X555246Y311250D01*
X584599Y259198D02*
X583599Y260198D01*
X581600D01*
X580600Y259198D01*
Y255200D01*
X581600Y254200D01*
X583599D01*
X584599Y255200D01*
X586598Y254200D02*
X588597D01*
X587598D01*
Y260198D01*
X586598Y259198D01*
X591596D02*
X592596Y260198D01*
X594595D01*
X595595Y259198D01*
Y255200D01*
X594595Y254200D01*
X592596D01*
X591596Y255200D01*
Y259198D01*
X568603Y403748D02*
X567603Y404748D01*
X565604D01*
X564604Y403748D01*
Y399750D01*
X565604Y398750D01*
X567603D01*
X568603Y399750D01*
X570602D02*
X571602Y398750D01*
X573601D01*
X574601Y399750D01*
Y403748D01*
X573601Y404748D01*
X571602D01*
X570602Y403748D01*
Y402749D01*
X571602Y401749D01*
X574601D01*
X596249Y391748D02*
X595249Y392748D01*
X593250D01*
X592250Y391748D01*
Y387750D01*
X593250Y386750D01*
X595249D01*
X596249Y387750D01*
X598248Y391748D02*
X599248Y392748D01*
X601247D01*
X602247Y391748D01*
Y390749D01*
X601247Y389749D01*
X602247Y388749D01*
Y387750D01*
X601247Y386750D01*
X599248D01*
X598248Y387750D01*
Y388749D01*
X599248Y389749D01*
X598248Y390749D01*
Y391748D01*
X599248Y389749D02*
X601247D01*
X583249Y369748D02*
X582249Y370748D01*
X580250D01*
X579250Y369748D01*
Y365750D01*
X580250Y364750D01*
X582249D01*
X583249Y365750D01*
X585248Y370748D02*
X589247D01*
Y369748D01*
X585248Y365750D01*
Y364750D01*
X650232Y423800D02*
X649232Y424800D01*
X647233D01*
X646233Y423800D01*
Y419801D01*
X647233Y418802D01*
X649232D01*
X650232Y419801D01*
X656230Y424800D02*
X652231D01*
Y421801D01*
X654230Y422800D01*
X655230D01*
X656230Y421801D01*
Y419801D01*
X655230Y418802D01*
X653231D01*
X652231Y419801D01*
X365599Y180498D02*
X364599Y181498D01*
X362600D01*
X361600Y180498D01*
Y176500D01*
X362600Y175500D01*
X364599D01*
X365599Y176500D01*
X370597Y175500D02*
Y181498D01*
X367598Y178499D01*
X371597D01*
X354099Y180198D02*
X353099Y181198D01*
X351100D01*
X350100Y180198D01*
Y176200D01*
X351100Y175200D01*
X353099D01*
X354099Y176200D01*
X356098Y180198D02*
X357098Y181198D01*
X359097D01*
X360097Y180198D01*
Y179199D01*
X359097Y178199D01*
X358097D01*
X359097D01*
X360097Y177199D01*
Y176200D01*
X359097Y175200D01*
X357098D01*
X356098Y176200D01*
X340599Y180498D02*
X339599Y181498D01*
X337600D01*
X336600Y180498D01*
Y176500D01*
X337600Y175500D01*
X339599D01*
X340599Y176500D01*
X346597Y175500D02*
X342598D01*
X346597Y179499D01*
Y180498D01*
X345597Y181498D01*
X343598D01*
X342598Y180498D01*
D14*
X618881Y176999D02*
X620214Y173000D01*
X619071Y176999D02*
X620214Y173571D01*
X621547Y176999D02*
X620214Y173000D01*
X618500Y176999D02*
X619643D01*
X620785D02*
X621928D01*
X622632Y171667D02*
X625870D01*
X628860Y176428D02*
X629050Y176999D01*
Y175856D01*
X628860Y176428D01*
X628479Y176809D01*
X627908Y176999D01*
X627336D01*
X626765Y176809D01*
X626384Y176428D01*
Y176047D01*
X626575Y175666D01*
X626765Y175476D01*
X627146Y175285D01*
X628288Y174904D01*
X628669Y174714D01*
X629050Y174333D01*
X626384Y176047D02*
X626765Y175666D01*
X627146Y175476D01*
X628288Y175095D01*
X628669Y174904D01*
X628860Y174714D01*
X629050Y174333D01*
Y173571D01*
X628669Y173190D01*
X628098Y173000D01*
X627527D01*
X626955Y173190D01*
X626575Y173571D01*
X626384Y174143D01*
Y173000D01*
X626575Y173571D01*
X630212Y176999D02*
Y173000D01*
X630402Y176999D02*
Y173000D01*
X631545Y175856D02*
Y174333D01*
X629640Y176999D02*
X632687D01*
Y175856D01*
X632497Y176999D01*
X630402Y175095D02*
X631545D01*
X629640Y173000D02*
X632687D01*
Y174143D01*
X632497Y173000D01*
X633811Y176999D02*
Y173000D01*
X634001Y176999D02*
Y173000D01*
X633240Y176999D02*
X634573D01*
X633240Y173000D02*
X636096D01*
Y174143D01*
X635906Y173000D01*
X637239Y176999D02*
Y173000D01*
X637429Y176999D02*
Y173000D01*
X638572Y175856D02*
Y174333D01*
X636667Y176999D02*
X639714D01*
Y175856D01*
X639524Y176999D01*
X637429Y175095D02*
X638572D01*
X636667Y173000D02*
X639714D01*
Y174143D01*
X639524Y173000D01*
X642933Y176428D02*
X643123Y175856D01*
Y176999D01*
X642933Y176428D01*
X642552Y176809D01*
X641981Y176999D01*
X641600D01*
X641028Y176809D01*
X640648Y176428D01*
X640457Y176047D01*
X640267Y175476D01*
Y174523D01*
X640457Y173952D01*
X640648Y173571D01*
X641028Y173190D01*
X641600Y173000D01*
X641981D01*
X642552Y173190D01*
X642933Y173571D01*
X643123Y173952D01*
X641600Y176999D02*
X641219Y176809D01*
X640838Y176428D01*
X640648Y176047D01*
X640457Y175476D01*
Y174523D01*
X640648Y173952D01*
X640838Y173571D01*
X641219Y173190D01*
X641600Y173000D01*
X645028Y176999D02*
Y173000D01*
X645218Y176999D02*
Y173000D01*
X643885Y176999D02*
X643695Y175856D01*
Y176999D01*
X646551D01*
Y175856D01*
X646361Y176999D01*
X644456Y173000D02*
X645789D01*
X608524Y166999D02*
Y163762D01*
X608333Y163190D01*
X607952Y163000D01*
X607571D01*
X607190Y163190D01*
X607000Y163571D01*
Y163952D01*
X607190Y164143D01*
X607381Y163952D01*
X607190Y163762D01*
X608333Y166999D02*
Y163762D01*
X608143Y163190D01*
X607952Y163000D01*
X607762Y166999D02*
X609095D01*
X611075D02*
Y163000D01*
X611266Y166999D02*
Y163000D01*
X609933Y166999D02*
X609742Y165857D01*
Y166999D01*
X612599D01*
Y165857D01*
X612408Y166999D01*
X610504Y163000D02*
X611837D01*
X614884Y166999D02*
X613551Y163000D01*
X614884Y166999D02*
X616217Y163000D01*
X614884Y166428D02*
X616027Y163000D01*
X613932Y164143D02*
X615646D01*
X613170Y163000D02*
X614313D01*
X615455D02*
X616598D01*
X619778Y166428D02*
X619969Y165857D01*
Y166999D01*
X619778Y166428D01*
X619397Y166809D01*
X618826Y166999D01*
X618445D01*
X617874Y166809D01*
X617493Y166428D01*
X617303Y166047D01*
X617112Y165476D01*
Y164523D01*
X617303Y163952D01*
X617493Y163571D01*
X617874Y163190D01*
X618445Y163000D01*
X618826D01*
X619397Y163190D01*
X619778Y163571D01*
X618445Y166999D02*
X618064Y166809D01*
X617683Y166428D01*
X617493Y166047D01*
X617303Y165476D01*
Y164523D01*
X617493Y163952D01*
X617683Y163571D01*
X618064Y163190D01*
X618445Y163000D01*
X619778Y164523D02*
Y163000D01*
X619969Y164523D02*
Y163000D01*
X619207Y164523D02*
X620540D01*
X621245Y161667D02*
X624482D01*
X626329Y166999D02*
Y163000D01*
X626520Y166999D02*
Y163000D01*
X625187Y166999D02*
X624996Y165857D01*
Y166999D01*
X627853D01*
Y165857D01*
X627662Y166999D01*
X625758Y163000D02*
X627091D01*
X631090Y166428D02*
X631281Y165857D01*
Y166999D01*
X631090Y166428D01*
X630709Y166809D01*
X630138Y166999D01*
X629757D01*
X629186Y166809D01*
X628805Y166428D01*
X628614Y166047D01*
X628424Y165476D01*
Y164523D01*
X628614Y163952D01*
X628805Y163571D01*
X629186Y163190D01*
X629757Y163000D01*
X630138D01*
X630709Y163190D01*
X631090Y163571D01*
X631281Y163952D01*
X629757Y166999D02*
X629376Y166809D01*
X628995Y166428D01*
X628805Y166047D01*
X628614Y165476D01*
Y164523D01*
X628805Y163952D01*
X628995Y163571D01*
X629376Y163190D01*
X629757Y163000D01*
X632423Y166999D02*
Y163000D01*
X632614Y166999D02*
Y163000D01*
X635089Y166999D02*
X632614Y164523D01*
X633566Y165285D02*
X635089Y163000D01*
X633375Y165285D02*
X634899Y163000D01*
X631852Y166999D02*
X633185D01*
X634328D02*
X635470D01*
X631852Y163000D02*
X633185D01*
X634328D02*
X635470D01*
X638631Y166428D02*
X638822Y165857D01*
Y166999D01*
X638631Y166428D01*
X638250Y166809D01*
X637679Y166999D01*
X637298D01*
X636727Y166809D01*
X636346Y166428D01*
X636156Y166047D01*
X635965Y165476D01*
Y164523D01*
X636156Y163952D01*
X636346Y163571D01*
X636727Y163190D01*
X637298Y163000D01*
X637679D01*
X638250Y163190D01*
X638631Y163571D01*
X638822Y163952D01*
X637298Y166999D02*
X636917Y166809D01*
X636537Y166428D01*
X636346Y166047D01*
X636156Y165476D01*
Y164523D01*
X636346Y163952D01*
X636537Y163571D01*
X636917Y163190D01*
X637298Y163000D01*
X621024Y158499D02*
Y155262D01*
X620833Y154690D01*
X620452Y154500D01*
X620071D01*
X619690Y154690D01*
X619500Y155071D01*
Y155452D01*
X619690Y155643D01*
X619881Y155452D01*
X619690Y155262D01*
X620833Y158499D02*
Y155262D01*
X620643Y154690D01*
X620452Y154500D01*
X620262Y158499D02*
X621595D01*
X623575D02*
Y154500D01*
X623766Y158499D02*
Y154500D01*
X622433Y158499D02*
X622242Y157357D01*
Y158499D01*
X625099D01*
Y157357D01*
X624908Y158499D01*
X623004Y154500D02*
X624337D01*
X627384Y158499D02*
X626051Y154500D01*
X627384Y158499D02*
X628717Y154500D01*
X627384Y157928D02*
X628527Y154500D01*
X626432Y155643D02*
X628146D01*
X625670Y154500D02*
X626813D01*
X627955D02*
X629098D01*
X632278Y157928D02*
X632469Y157357D01*
Y158499D01*
X632278Y157928D01*
X631897Y158309D01*
X631326Y158499D01*
X630945D01*
X630374Y158309D01*
X629993Y157928D01*
X629803Y157547D01*
X629612Y156976D01*
Y156024D01*
X629803Y155452D01*
X629993Y155071D01*
X630374Y154690D01*
X630945Y154500D01*
X631326D01*
X631897Y154690D01*
X632278Y155071D01*
X630945Y158499D02*
X630564Y158309D01*
X630183Y157928D01*
X629993Y157547D01*
X629803Y156976D01*
Y156024D01*
X629993Y155452D01*
X630183Y155071D01*
X630564Y154690D01*
X630945Y154500D01*
X632278Y156024D02*
Y154500D01*
X632469Y156024D02*
Y154500D01*
X631707Y156024D02*
X633040D01*
X633745Y153167D02*
X636982D01*
X638829Y158499D02*
Y154500D01*
X639020Y158499D02*
Y154500D01*
X637687Y158499D02*
X637496Y157357D01*
Y158499D01*
X640353D01*
Y157357D01*
X640162Y158499D01*
X638258Y154500D02*
X639591D01*
X641495Y158499D02*
Y154500D01*
X641686Y158499D02*
X642828Y155071D01*
X641495Y158499D02*
X642828Y154500D01*
X644161Y158499D02*
X642828Y154500D01*
X644161Y158499D02*
Y154500D01*
X644352Y158499D02*
Y154500D01*
X640924Y158499D02*
X641686D01*
X644161D02*
X644923D01*
X640924Y154500D02*
X642067D01*
X643590D02*
X644923D01*
X647856Y157928D02*
X648046Y158499D01*
Y157357D01*
X647856Y157928D01*
X647475Y158309D01*
X646904Y158499D01*
X646332D01*
X645761Y158309D01*
X645380Y157928D01*
Y157547D01*
X645571Y157166D01*
X645761Y156976D01*
X646142Y156785D01*
X647285Y156404D01*
X647665Y156214D01*
X648046Y155833D01*
X645380Y157547D02*
X645761Y157166D01*
X646142Y156976D01*
X647285Y156595D01*
X647665Y156404D01*
X647856Y156214D01*
X648046Y155833D01*
Y155071D01*
X647665Y154690D01*
X647094Y154500D01*
X646523D01*
X645952Y154690D01*
X645571Y155071D01*
X645380Y155643D01*
Y154500D01*
X645571Y155071D01*
X651303Y157928D02*
X651493Y157357D01*
Y158499D01*
X651303Y157928D01*
X650922Y158309D01*
X650351Y158499D01*
X649970D01*
X649398Y158309D01*
X649017Y157928D01*
X648827Y157547D01*
X648637Y156976D01*
Y156024D01*
X648827Y155452D01*
X649017Y155071D01*
X649398Y154690D01*
X649970Y154500D01*
X650351D01*
X650922Y154690D01*
X651303Y155071D01*
X651493Y155452D01*
X649970Y158499D02*
X649589Y158309D01*
X649208Y157928D01*
X649017Y157547D01*
X648827Y156976D01*
Y156024D01*
X649017Y155452D01*
X649208Y155071D01*
X649589Y154690D01*
X649970Y154500D01*
X608571Y147499D02*
Y143500D01*
X608762Y147499D02*
Y143500D01*
X608000Y147499D02*
X609904D01*
X610476Y147309D01*
X610856Y146928D01*
X611047Y146547D01*
X611237Y145976D01*
Y145024D01*
X611047Y144452D01*
X610856Y144071D01*
X610476Y143690D01*
X609904Y143500D01*
X608000D01*
X609904Y147499D02*
X610285Y147309D01*
X610666Y146928D01*
X610856Y146547D01*
X611047Y145976D01*
Y145024D01*
X610856Y144452D01*
X610666Y144071D01*
X610285Y143690D01*
X609904Y143500D01*
X612342Y147499D02*
Y143500D01*
X612532Y147499D02*
Y143500D01*
X611771Y147499D02*
X613104D01*
X611771Y143500D02*
X613104D01*
X615160Y147499D02*
X614589Y147309D01*
X614208Y146928D01*
X614018Y146547D01*
X613827Y145785D01*
Y145214D01*
X614018Y144452D01*
X614208Y144071D01*
X614589Y143690D01*
X615160Y143500D01*
X615541D01*
X616113Y143690D01*
X616493Y144071D01*
X616684Y144452D01*
X616874Y145214D01*
Y145785D01*
X616684Y146547D01*
X616493Y146928D01*
X616113Y147309D01*
X615541Y147499D01*
X615160D01*
X614780Y147309D01*
X614399Y146928D01*
X614208Y146547D01*
X614018Y145785D01*
Y145214D01*
X614208Y144452D01*
X614399Y144071D01*
X614780Y143690D01*
X615160Y143500D01*
X615541D02*
X615922Y143690D01*
X616303Y144071D01*
X616493Y144452D01*
X616684Y145214D01*
Y145785D01*
X616493Y146547D01*
X616303Y146928D01*
X615922Y147309D01*
X615541Y147499D01*
X617427Y146737D02*
X617807Y146928D01*
X618379Y147499D01*
Y143500D01*
X618188Y147309D02*
Y143500D01*
X617427D02*
X619140D01*
X622111Y146928D02*
X621921Y146737D01*
X622111Y146547D01*
X622302Y146737D01*
Y146928D01*
X622111Y147309D01*
X621730Y147499D01*
X621159D01*
X620588Y147309D01*
X620207Y146928D01*
X620016Y146547D01*
X619826Y145785D01*
Y144643D01*
X620016Y144071D01*
X620397Y143690D01*
X620969Y143500D01*
X621349D01*
X621921Y143690D01*
X622302Y144071D01*
X622492Y144643D01*
Y144833D01*
X622302Y145404D01*
X621921Y145785D01*
X621349Y145976D01*
X621159D01*
X620588Y145785D01*
X620207Y145404D01*
X620016Y144833D01*
X621159Y147499D02*
X620778Y147309D01*
X620397Y146928D01*
X620207Y146547D01*
X620016Y145785D01*
Y144643D01*
X620207Y144071D01*
X620588Y143690D01*
X620969Y143500D01*
X621349D02*
X621730Y143690D01*
X622111Y144071D01*
X622302Y144643D01*
Y144833D01*
X622111Y145404D01*
X621730Y145785D01*
X621349Y145976D01*
X623273Y142167D02*
X626510D01*
X628358Y147499D02*
Y143500D01*
X628548Y147499D02*
Y143500D01*
X627215Y147499D02*
X627025Y146356D01*
Y147499D01*
X629881D01*
Y146356D01*
X629691Y147499D01*
X627786Y143500D02*
X629119D01*
X631024Y147499D02*
Y143500D01*
X631214Y147499D02*
Y143500D01*
X630452Y147499D02*
X632357D01*
X632928Y147309D01*
X633309Y146928D01*
X633499Y146547D01*
X633690Y145976D01*
Y145024D01*
X633499Y144452D01*
X633309Y144071D01*
X632928Y143690D01*
X632357Y143500D01*
X630452D01*
X632357Y147499D02*
X632738Y147309D01*
X633118Y146928D01*
X633309Y146547D01*
X633499Y145976D01*
Y145024D01*
X633309Y144452D01*
X633118Y144071D01*
X632738Y143690D01*
X632357Y143500D01*
X635556Y147499D02*
X634985Y147309D01*
X634604Y146928D01*
X634413Y146547D01*
X634223Y145785D01*
Y145214D01*
X634413Y144452D01*
X634604Y144071D01*
X634985Y143690D01*
X635556Y143500D01*
X635937D01*
X636508Y143690D01*
X636889Y144071D01*
X637079Y144452D01*
X637270Y145214D01*
Y145785D01*
X637079Y146547D01*
X636889Y146928D01*
X636508Y147309D01*
X635937Y147499D01*
X635556D01*
X635175Y147309D01*
X634794Y146928D01*
X634604Y146547D01*
X634413Y145785D01*
Y145214D01*
X634604Y144452D01*
X634794Y144071D01*
X635175Y143690D01*
X635556Y143500D01*
X635937D02*
X636318Y143690D01*
X636699Y144071D01*
X636889Y144452D01*
X637079Y145214D01*
Y145785D01*
X636889Y146547D01*
X636699Y146928D01*
X636318Y147309D01*
X635937Y147499D01*
X620571Y138999D02*
Y135000D01*
X620762Y138999D02*
Y135000D01*
X620000Y138999D02*
X621904D01*
X622476Y138809D01*
X622857Y138428D01*
X623047Y138047D01*
X623237Y137476D01*
Y136523D01*
X623047Y135952D01*
X622857Y135571D01*
X622476Y135190D01*
X621904Y135000D01*
X620000D01*
X621904Y138999D02*
X622285Y138809D01*
X622666Y138428D01*
X622857Y138047D01*
X623047Y137476D01*
Y136523D01*
X622857Y135952D01*
X622666Y135571D01*
X622285Y135190D01*
X621904Y135000D01*
X624342Y138999D02*
Y135000D01*
X624532Y138999D02*
Y135000D01*
X623771Y138999D02*
X625104D01*
X623771Y135000D02*
X625104D01*
X627160Y138999D02*
X626589Y138809D01*
X626208Y138428D01*
X626018Y138047D01*
X625827Y137285D01*
Y136714D01*
X626018Y135952D01*
X626208Y135571D01*
X626589Y135190D01*
X627160Y135000D01*
X627541D01*
X628113Y135190D01*
X628493Y135571D01*
X628684Y135952D01*
X628874Y136714D01*
Y137285D01*
X628684Y138047D01*
X628493Y138428D01*
X628113Y138809D01*
X627541Y138999D01*
X627160D01*
X626780Y138809D01*
X626399Y138428D01*
X626208Y138047D01*
X626018Y137285D01*
Y136714D01*
X626208Y135952D01*
X626399Y135571D01*
X626780Y135190D01*
X627160Y135000D01*
X627541D02*
X627922Y135190D01*
X628303Y135571D01*
X628493Y135952D01*
X628684Y136714D01*
Y137285D01*
X628493Y138047D01*
X628303Y138428D01*
X627922Y138809D01*
X627541Y138999D01*
X629427Y138237D02*
X629807Y138428D01*
X630379Y138999D01*
Y135000D01*
X630188Y138809D02*
Y135000D01*
X629427D02*
X631141D01*
X631826Y138999D02*
Y137856D01*
Y138237D02*
X632017Y138618D01*
X632397Y138999D01*
X632778D01*
X633730Y138428D01*
X634111D01*
X634302Y138618D01*
X634492Y138999D01*
X632017Y138618D02*
X632397Y138809D01*
X632778D01*
X633730Y138428D01*
X634492Y138999D02*
Y138428D01*
X634302Y137856D01*
X633540Y136904D01*
X633350Y136523D01*
X633159Y135952D01*
Y135000D01*
X634302Y137856D02*
X633350Y136904D01*
X633159Y136523D01*
X632969Y135952D01*
Y135000D01*
X635273Y133667D02*
X638510D01*
X640357Y138999D02*
Y135000D01*
X640548Y138999D02*
Y135000D01*
X639215Y138999D02*
X639024Y137856D01*
Y138999D01*
X641881D01*
Y137856D01*
X641691Y138999D01*
X639786Y135000D02*
X641119D01*
X643024Y138999D02*
Y135000D01*
X643214Y138999D02*
Y135000D01*
X642452Y138999D02*
X644357D01*
X644928Y138809D01*
X645309Y138428D01*
X645499Y138047D01*
X645690Y137476D01*
Y136523D01*
X645499Y135952D01*
X645309Y135571D01*
X644928Y135190D01*
X644357Y135000D01*
X642452D01*
X644357Y138999D02*
X644738Y138809D01*
X645118Y138428D01*
X645309Y138047D01*
X645499Y137476D01*
Y136523D01*
X645309Y135952D01*
X645118Y135571D01*
X644738Y135190D01*
X644357Y135000D01*
X646794Y138999D02*
Y135000D01*
X646985Y138999D02*
Y135000D01*
X646223Y138999D02*
X647556D01*
X646223Y135000D02*
X647556D01*
X608571Y128999D02*
Y125000D01*
X608762Y128999D02*
Y125000D01*
X608000Y128999D02*
X609904D01*
X610476Y128809D01*
X610856Y128428D01*
X611047Y128047D01*
X611237Y127476D01*
Y126523D01*
X611047Y125952D01*
X610856Y125571D01*
X610476Y125190D01*
X609904Y125000D01*
X608000D01*
X609904Y128999D02*
X610285Y128809D01*
X610666Y128428D01*
X610856Y128047D01*
X611047Y127476D01*
Y126523D01*
X610856Y125952D01*
X610666Y125571D01*
X610285Y125190D01*
X609904Y125000D01*
X612342Y128999D02*
Y125000D01*
X612532Y128999D02*
Y125000D01*
X611771Y128999D02*
X613104D01*
X611771Y125000D02*
X613104D01*
X615160Y128999D02*
X614589Y128809D01*
X614208Y128428D01*
X614018Y128047D01*
X613827Y127285D01*
Y126714D01*
X614018Y125952D01*
X614208Y125571D01*
X614589Y125190D01*
X615160Y125000D01*
X615541D01*
X616113Y125190D01*
X616493Y125571D01*
X616684Y125952D01*
X616874Y126714D01*
Y127285D01*
X616684Y128047D01*
X616493Y128428D01*
X616113Y128809D01*
X615541Y128999D01*
X615160D01*
X614780Y128809D01*
X614399Y128428D01*
X614208Y128047D01*
X614018Y127285D01*
Y126714D01*
X614208Y125952D01*
X614399Y125571D01*
X614780Y125190D01*
X615160Y125000D01*
X615541D02*
X615922Y125190D01*
X616303Y125571D01*
X616493Y125952D01*
X616684Y126714D01*
Y127285D01*
X616493Y128047D01*
X616303Y128428D01*
X615922Y128809D01*
X615541Y128999D01*
X617427Y128237D02*
X617807Y128428D01*
X618379Y128999D01*
Y125000D01*
X618188Y128809D02*
Y125000D01*
X617427D02*
X619140D01*
X620778Y128999D02*
X620207Y128809D01*
X620016Y128428D01*
Y127857D01*
X620207Y127476D01*
X620778Y127285D01*
X621540D01*
X622111Y127476D01*
X622302Y127857D01*
Y128428D01*
X622111Y128809D01*
X621540Y128999D01*
X620778D01*
X620397Y128809D01*
X620207Y128428D01*
Y127857D01*
X620397Y127476D01*
X620778Y127285D01*
X621540D02*
X621921Y127476D01*
X622111Y127857D01*
Y128428D01*
X621921Y128809D01*
X621540Y128999D01*
X620778Y127285D02*
X620207Y127095D01*
X620016Y126904D01*
X619826Y126523D01*
Y125762D01*
X620016Y125381D01*
X620207Y125190D01*
X620778Y125000D01*
X621540D01*
X622111Y125190D01*
X622302Y125381D01*
X622492Y125762D01*
Y126523D01*
X622302Y126904D01*
X622111Y127095D01*
X621540Y127285D01*
X620778D02*
X620397Y127095D01*
X620207Y126904D01*
X620016Y126523D01*
Y125762D01*
X620207Y125381D01*
X620397Y125190D01*
X620778Y125000D01*
X621540D02*
X621921Y125190D01*
X622111Y125381D01*
X622302Y125762D01*
Y126523D01*
X622111Y126904D01*
X621921Y127095D01*
X621540Y127285D01*
X623273Y123667D02*
X626510D01*
X629500Y128428D02*
X629691Y128999D01*
Y127857D01*
X629500Y128428D01*
X629119Y128809D01*
X628548Y128999D01*
X627977D01*
X627405Y128809D01*
X627025Y128428D01*
Y128047D01*
X627215Y127666D01*
X627405Y127476D01*
X627786Y127285D01*
X628929Y126904D01*
X629310Y126714D01*
X629691Y126333D01*
X627025Y128047D02*
X627405Y127666D01*
X627786Y127476D01*
X628929Y127095D01*
X629310Y126904D01*
X629500Y126714D01*
X629691Y126333D01*
Y125571D01*
X629310Y125190D01*
X628738Y125000D01*
X628167D01*
X627596Y125190D01*
X627215Y125571D01*
X627025Y126143D01*
Y125000D01*
X627215Y125571D01*
X630852Y128999D02*
X631614Y125000D01*
X631043Y128999D02*
X631614Y125952D01*
X632376Y128999D02*
X631614Y125000D01*
X632376Y128999D02*
X633138Y125000D01*
X632566Y128999D02*
X633138Y125952D01*
X633899Y128999D02*
X633138Y125000D01*
X630281Y128999D02*
X631614D01*
X633328D02*
X634471D01*
X637575Y128428D02*
X637765Y127857D01*
Y128999D01*
X637575Y128428D01*
X637194Y128809D01*
X636622Y128999D01*
X636242D01*
X635670Y128809D01*
X635289Y128428D01*
X635099Y128047D01*
X634908Y127476D01*
Y126523D01*
X635099Y125952D01*
X635289Y125571D01*
X635670Y125190D01*
X636242Y125000D01*
X636622D01*
X637194Y125190D01*
X637575Y125571D01*
X637765Y125952D01*
X636242Y128999D02*
X635861Y128809D01*
X635480Y128428D01*
X635289Y128047D01*
X635099Y127476D01*
Y126523D01*
X635289Y125952D01*
X635480Y125571D01*
X635861Y125190D01*
X636242Y125000D01*
X621166Y254428D02*
X621356Y253856D01*
Y254999D01*
X621166Y254428D01*
X620785Y254809D01*
X620214Y254999D01*
X619833D01*
X619262Y254809D01*
X618881Y254428D01*
X618690Y254047D01*
X618500Y253476D01*
Y252523D01*
X618690Y251952D01*
X618881Y251571D01*
X619262Y251190D01*
X619833Y251000D01*
X620214D01*
X620785Y251190D01*
X621166Y251571D01*
X619833Y254999D02*
X619452Y254809D01*
X619071Y254428D01*
X618881Y254047D01*
X618690Y253476D01*
Y252523D01*
X618881Y251952D01*
X619071Y251571D01*
X619452Y251190D01*
X619833Y251000D01*
X621166Y252523D02*
Y251000D01*
X621356Y252523D02*
Y251000D01*
X620595Y252523D02*
X621928D01*
X623013Y254999D02*
Y251000D01*
X623204Y254999D02*
X625489Y251381D01*
X623204Y254618D02*
X625489Y251000D01*
Y254999D02*
Y251000D01*
X622442Y254999D02*
X623204D01*
X624918D02*
X626060D01*
X622442Y251000D02*
X623585D01*
X627127Y254999D02*
Y251000D01*
X627317Y254999D02*
Y251000D01*
X626555Y254999D02*
X628460D01*
X629031Y254809D01*
X629412Y254428D01*
X629602Y254047D01*
X629793Y253476D01*
Y252523D01*
X629602Y251952D01*
X629412Y251571D01*
X629031Y251190D01*
X628460Y251000D01*
X626555D01*
X628460Y254999D02*
X628841Y254809D01*
X629221Y254428D01*
X629412Y254047D01*
X629602Y253476D01*
Y252523D01*
X629412Y251952D01*
X629221Y251571D01*
X628841Y251190D01*
X628460Y251000D01*
X607381Y244999D02*
X608714Y241000D01*
X607571Y244999D02*
X608714Y241571D01*
X610047Y244999D02*
X608714Y241000D01*
X607000Y244999D02*
X608143D01*
X609285D02*
X610428D01*
X611132Y239667D02*
X614370D01*
X616788Y243285D02*
X616979Y243666D01*
Y242904D01*
X616788Y243285D01*
X616598Y243476D01*
X616217Y243666D01*
X615455D01*
X615074Y243476D01*
X614884Y243285D01*
Y242904D01*
X615074Y242714D01*
X615455Y242524D01*
X616407Y242143D01*
X616788Y241952D01*
X616979Y241762D01*
X614884Y243095D02*
X615074Y242904D01*
X615455Y242714D01*
X616407Y242333D01*
X616788Y242143D01*
X616979Y241952D01*
Y241381D01*
X616788Y241190D01*
X616407Y241000D01*
X615646D01*
X615265Y241190D01*
X615074Y241381D01*
X614884Y241762D01*
Y241000D01*
X615074Y241381D01*
X617817Y242524D02*
X620102D01*
Y242904D01*
X619911Y243285D01*
X619721Y243476D01*
X619340Y243666D01*
X618769D01*
X618198Y243476D01*
X617817Y243095D01*
X617626Y242524D01*
Y242143D01*
X617817Y241571D01*
X618198Y241190D01*
X618769Y241000D01*
X619150D01*
X619721Y241190D01*
X620102Y241571D01*
X619911Y242524D02*
Y243095D01*
X619721Y243476D01*
X618769Y243666D02*
X618388Y243476D01*
X618007Y243095D01*
X617817Y242524D01*
Y242143D01*
X618007Y241571D01*
X618388Y241190D01*
X618769Y241000D01*
X621283Y244999D02*
Y241000D01*
X621473Y244999D02*
Y241000D01*
X620711Y244999D02*
X621473D01*
X620711Y241000D02*
X622044D01*
X622959Y242524D02*
X625244D01*
Y242904D01*
X625053Y243285D01*
X624863Y243476D01*
X624482Y243666D01*
X623911D01*
X623339Y243476D01*
X622959Y243095D01*
X622768Y242524D01*
Y242143D01*
X622959Y241571D01*
X623339Y241190D01*
X623911Y241000D01*
X624292D01*
X624863Y241190D01*
X625244Y241571D01*
X625053Y242524D02*
Y243095D01*
X624863Y243476D01*
X623911Y243666D02*
X623530Y243476D01*
X623149Y243095D01*
X622959Y242524D01*
Y242143D01*
X623149Y241571D01*
X623530Y241190D01*
X623911Y241000D01*
X628138Y243095D02*
X627948Y242904D01*
X628138Y242714D01*
X628329Y242904D01*
Y243095D01*
X627948Y243476D01*
X627567Y243666D01*
X626996D01*
X626424Y243476D01*
X626044Y243095D01*
X625853Y242524D01*
Y242143D01*
X626044Y241571D01*
X626424Y241190D01*
X626996Y241000D01*
X627377D01*
X627948Y241190D01*
X628329Y241571D01*
X626996Y243666D02*
X626615Y243476D01*
X626234Y243095D01*
X626044Y242524D01*
Y242143D01*
X626234Y241571D01*
X626615Y241190D01*
X626996Y241000D01*
X630081D02*
X629890Y241190D01*
X629700Y241762D01*
Y244999D01*
X629509D01*
Y241762D01*
X629700Y241190D01*
X630081Y241000D01*
X630462D01*
X630842Y241190D01*
X631033Y241571D01*
X628938Y243666D02*
X630462D01*
X619571Y233999D02*
Y231143D01*
X619762Y230571D01*
X620143Y230190D01*
X620714Y230000D01*
X621095D01*
X621666Y230190D01*
X622047Y230571D01*
X622237Y231143D01*
Y233999D01*
X619762D02*
Y231143D01*
X619952Y230571D01*
X620333Y230190D01*
X620714Y230000D01*
X619000Y233999D02*
X620333D01*
X621666D02*
X622809D01*
X624999D02*
X623666Y230000D01*
X624999Y233999D02*
X626332Y230000D01*
X624999Y233428D02*
X626141Y230000D01*
X624047Y231143D02*
X625761D01*
X623285Y230000D02*
X624427D01*
X625570D02*
X626713D01*
X627798Y233999D02*
Y230000D01*
X627989Y233999D02*
Y230000D01*
X627227Y233999D02*
X629512D01*
X630083Y233809D01*
X630274Y233618D01*
X630464Y233237D01*
Y232856D01*
X630274Y232476D01*
X630083Y232285D01*
X629512Y232095D01*
X627989D01*
X629512Y233999D02*
X629893Y233809D01*
X630083Y233618D01*
X630274Y233237D01*
Y232856D01*
X630083Y232476D01*
X629893Y232285D01*
X629512Y232095D01*
X627227Y230000D02*
X628560D01*
X628941Y232095D02*
X629322Y231904D01*
X629512Y231714D01*
X630083Y230381D01*
X630274Y230190D01*
X630464D01*
X630655Y230381D01*
X629322Y231904D02*
X629512Y231523D01*
X629893Y230190D01*
X630083Y230000D01*
X630464D01*
X630655Y230381D01*
Y230571D01*
X632502Y233999D02*
Y230000D01*
X632692Y233999D02*
Y230000D01*
X631359Y233999D02*
X631169Y232856D01*
Y233999D01*
X634025D01*
Y232856D01*
X633835Y233999D01*
X631931Y230000D02*
X633264D01*
X634787Y228667D02*
X638025D01*
X639110Y233999D02*
Y230000D01*
X639300Y233999D02*
Y230000D01*
X638539Y233999D02*
X640824D01*
X641395Y233809D01*
X641586Y233618D01*
X641776Y233237D01*
Y232856D01*
X641586Y232476D01*
X641395Y232285D01*
X640824Y232095D01*
X639300D01*
X640824Y233999D02*
X641205Y233809D01*
X641395Y233618D01*
X641586Y233237D01*
Y232856D01*
X641395Y232476D01*
X641205Y232285D01*
X640824Y232095D01*
X638539Y230000D02*
X639872D01*
X640253Y232095D02*
X640633Y231904D01*
X640824Y231714D01*
X641395Y230381D01*
X641586Y230190D01*
X641776D01*
X641966Y230381D01*
X640633Y231904D02*
X640824Y231523D01*
X641205Y230190D01*
X641395Y230000D01*
X641776D01*
X641966Y230381D01*
Y230571D01*
X642862Y233999D02*
X645337Y230000D01*
X643052Y233999D02*
X645528Y230000D01*
Y233999D02*
X642862Y230000D01*
X642481Y233999D02*
X643623D01*
X644766D02*
X645908D01*
X642481Y230000D02*
X643623D01*
X644766D02*
X645908D01*
X608571Y225499D02*
Y222643D01*
X608762Y222071D01*
X609143Y221690D01*
X609714Y221500D01*
X610095D01*
X610666Y221690D01*
X611047Y222071D01*
X611237Y222643D01*
Y225499D01*
X608762D02*
Y222643D01*
X608952Y222071D01*
X609333Y221690D01*
X609714Y221500D01*
X608000Y225499D02*
X609333D01*
X610666D02*
X611809D01*
X613999D02*
X612666Y221500D01*
X613999Y225499D02*
X615332Y221500D01*
X613999Y224928D02*
X615141Y221500D01*
X613047Y222643D02*
X614760D01*
X612285Y221500D02*
X613427D01*
X614570D02*
X615713D01*
X616798Y225499D02*
Y221500D01*
X616989Y225499D02*
Y221500D01*
X616227Y225499D02*
X618512D01*
X619083Y225309D01*
X619274Y225118D01*
X619464Y224737D01*
Y224357D01*
X619274Y223976D01*
X619083Y223785D01*
X618512Y223595D01*
X616989D01*
X618512Y225499D02*
X618893Y225309D01*
X619083Y225118D01*
X619274Y224737D01*
Y224357D01*
X619083Y223976D01*
X618893Y223785D01*
X618512Y223595D01*
X616227Y221500D02*
X617560D01*
X617941Y223595D02*
X618322Y223404D01*
X618512Y223214D01*
X619083Y221881D01*
X619274Y221690D01*
X619464D01*
X619655Y221881D01*
X618322Y223404D02*
X618512Y223024D01*
X618893Y221690D01*
X619083Y221500D01*
X619464D01*
X619655Y221881D01*
Y222071D01*
X621502Y225499D02*
Y221500D01*
X621692Y225499D02*
Y221500D01*
X620359Y225499D02*
X620169Y224357D01*
Y225499D01*
X623025D01*
Y224357D01*
X622835Y225499D01*
X620931Y221500D02*
X622264D01*
X623787Y220167D02*
X627025D01*
X628872Y225499D02*
Y221500D01*
X629062Y225499D02*
Y221500D01*
X627729Y225499D02*
X627539Y224357D01*
Y225499D01*
X630395D01*
Y224357D01*
X630205Y225499D01*
X628300Y221500D02*
X629634D01*
X631347Y225499D02*
X633823Y221500D01*
X631538Y225499D02*
X634014Y221500D01*
Y225499D02*
X631347Y221500D01*
X630967Y225499D02*
X632109D01*
X633252D02*
X634394D01*
X630967Y221500D02*
X632109D01*
X633252D02*
X634394D01*
X620571Y216999D02*
Y213000D01*
X620762Y216999D02*
Y213000D01*
X620000Y216999D02*
X621333D01*
X620000Y213000D02*
X621333D01*
X622247Y216237D02*
X622438Y216047D01*
X622247Y215857D01*
X622057Y216047D01*
Y216237D01*
X622247Y216618D01*
X622438Y216809D01*
X623009Y216999D01*
X623771D01*
X624342Y216809D01*
X624532Y216618D01*
X624723Y216237D01*
Y215857D01*
X624532Y215476D01*
X623961Y215095D01*
X623009Y214714D01*
X622628Y214524D01*
X622247Y214143D01*
X622057Y213571D01*
Y213000D01*
X623771Y216999D02*
X624152Y216809D01*
X624342Y216618D01*
X624532Y216237D01*
Y215857D01*
X624342Y215476D01*
X623771Y215095D01*
X623009Y214714D01*
X622057Y213381D02*
X622247Y213571D01*
X622628D01*
X623580Y213190D01*
X624152D01*
X624532Y213381D01*
X624723Y213571D01*
Y213952D01*
X622628Y213571D02*
X623580Y213000D01*
X624342D01*
X624532Y213190D01*
X624723Y213571D01*
X627979Y216428D02*
X628170Y215857D01*
Y216999D01*
X627979Y216428D01*
X627598Y216809D01*
X627027Y216999D01*
X626646D01*
X626075Y216809D01*
X625694Y216428D01*
X625504Y216047D01*
X625313Y215476D01*
Y214524D01*
X625504Y213952D01*
X625694Y213571D01*
X626075Y213190D01*
X626646Y213000D01*
X627027D01*
X627598Y213190D01*
X627979Y213571D01*
X628170Y213952D01*
X626646Y216999D02*
X626265Y216809D01*
X625884Y216428D01*
X625694Y216047D01*
X625504Y215476D01*
Y214524D01*
X625694Y213952D01*
X625884Y213571D01*
X626265Y213190D01*
X626646Y213000D01*
X628931Y211667D02*
X632169D01*
X635159Y216428D02*
X635349Y216999D01*
Y215857D01*
X635159Y216428D01*
X634778Y216809D01*
X634206Y216999D01*
X633635D01*
X633064Y216809D01*
X632683Y216428D01*
Y216047D01*
X632873Y215666D01*
X633064Y215476D01*
X633445Y215285D01*
X634587Y214904D01*
X634968Y214714D01*
X635349Y214333D01*
X632683Y216047D02*
X633064Y215666D01*
X633445Y215476D01*
X634587Y215095D01*
X634968Y214904D01*
X635159Y214714D01*
X635349Y214333D01*
Y213571D01*
X634968Y213190D01*
X634397Y213000D01*
X633826D01*
X633254Y213190D01*
X632873Y213571D01*
X632683Y214143D01*
Y213000D01*
X632873Y213571D01*
X638606Y216428D02*
X638796Y215857D01*
Y216999D01*
X638606Y216428D01*
X638225Y216809D01*
X637653Y216999D01*
X637273D01*
X636701Y216809D01*
X636320Y216428D01*
X636130Y216047D01*
X635940Y215476D01*
Y214524D01*
X636130Y213952D01*
X636320Y213571D01*
X636701Y213190D01*
X637273Y213000D01*
X637653D01*
X638225Y213190D01*
X638606Y213571D01*
X638796Y213952D01*
X637273Y216999D02*
X636892Y216809D01*
X636511Y216428D01*
X636320Y216047D01*
X636130Y215476D01*
Y214524D01*
X636320Y213952D01*
X636511Y213571D01*
X636892Y213190D01*
X637273Y213000D01*
X639939Y216999D02*
Y213000D01*
X640129Y216999D02*
Y213000D01*
X639367Y216999D02*
X640700D01*
X639367Y213000D02*
X642224D01*
Y214143D01*
X642033Y213000D01*
X608571Y206999D02*
Y203000D01*
X608762Y206999D02*
Y203000D01*
X608000Y206999D02*
X609333D01*
X608000Y203000D02*
X609333D01*
X610247Y206237D02*
X610438Y206047D01*
X610247Y205856D01*
X610057Y206047D01*
Y206237D01*
X610247Y206618D01*
X610438Y206809D01*
X611009Y206999D01*
X611771D01*
X612342Y206809D01*
X612532Y206618D01*
X612723Y206237D01*
Y205856D01*
X612532Y205476D01*
X611961Y205095D01*
X611009Y204714D01*
X610628Y204523D01*
X610247Y204143D01*
X610057Y203571D01*
Y203000D01*
X611771Y206999D02*
X612151Y206809D01*
X612342Y206618D01*
X612532Y206237D01*
Y205856D01*
X612342Y205476D01*
X611771Y205095D01*
X611009Y204714D01*
X610057Y203381D02*
X610247Y203571D01*
X610628D01*
X611580Y203190D01*
X612151D01*
X612532Y203381D01*
X612723Y203571D01*
Y203952D01*
X610628Y203571D02*
X611580Y203000D01*
X612342D01*
X612532Y203190D01*
X612723Y203571D01*
X615979Y206428D02*
X616170Y205856D01*
Y206999D01*
X615979Y206428D01*
X615598Y206809D01*
X615027Y206999D01*
X614646D01*
X614075Y206809D01*
X613694Y206428D01*
X613504Y206047D01*
X613313Y205476D01*
Y204523D01*
X613504Y203952D01*
X613694Y203571D01*
X614075Y203190D01*
X614646Y203000D01*
X615027D01*
X615598Y203190D01*
X615979Y203571D01*
X616170Y203952D01*
X614646Y206999D02*
X614265Y206809D01*
X613884Y206428D01*
X613694Y206047D01*
X613504Y205476D01*
Y204523D01*
X613694Y203952D01*
X613884Y203571D01*
X614265Y203190D01*
X614646Y203000D01*
X616931Y201667D02*
X620169D01*
X623159Y206428D02*
X623349Y206999D01*
Y205856D01*
X623159Y206428D01*
X622778Y206809D01*
X622206Y206999D01*
X621635D01*
X621064Y206809D01*
X620683Y206428D01*
Y206047D01*
X620873Y205666D01*
X621064Y205476D01*
X621445Y205285D01*
X622587Y204904D01*
X622968Y204714D01*
X623349Y204333D01*
X620683Y206047D02*
X621064Y205666D01*
X621445Y205476D01*
X622587Y205095D01*
X622968Y204904D01*
X623159Y204714D01*
X623349Y204333D01*
Y203571D01*
X622968Y203190D01*
X622397Y203000D01*
X621826D01*
X621254Y203190D01*
X620873Y203571D01*
X620683Y204143D01*
Y203000D01*
X620873Y203571D01*
X624511Y206999D02*
Y203000D01*
X624701Y206999D02*
Y203000D01*
X623940Y206999D02*
X625844D01*
X626415Y206809D01*
X626796Y206428D01*
X626986Y206047D01*
X627177Y205476D01*
Y204523D01*
X626986Y203952D01*
X626796Y203571D01*
X626415Y203190D01*
X625844Y203000D01*
X623940D01*
X625844Y206999D02*
X626225Y206809D01*
X626606Y206428D01*
X626796Y206047D01*
X626986Y205476D01*
Y204523D01*
X626796Y203952D01*
X626606Y203571D01*
X626225Y203190D01*
X625844Y203000D01*
X629424Y206999D02*
X628091Y203000D01*
X629424Y206999D02*
X630757Y203000D01*
X629424Y206428D02*
X630567Y203000D01*
X628472Y204143D02*
X630186D01*
X627710Y203000D02*
X628853D01*
X629995D02*
X631138D01*
X436071Y245499D02*
Y241500D01*
X436262Y245499D02*
Y241500D01*
X435500Y245499D02*
X437785D01*
X438356Y245309D01*
X438547Y245118D01*
X438737Y244737D01*
Y244356D01*
X438547Y243976D01*
X438356Y243785D01*
X437785Y243595D01*
X436262D01*
X437785Y245499D02*
X438166Y245309D01*
X438356Y245118D01*
X438547Y244737D01*
Y244356D01*
X438356Y243976D01*
X438166Y243785D01*
X437785Y243595D01*
X435500Y241500D02*
X436833D01*
X437214Y243595D02*
X437595Y243404D01*
X437785Y243214D01*
X438356Y241881D01*
X438547Y241690D01*
X438737D01*
X438928Y241881D01*
X437595Y243404D02*
X437785Y243023D01*
X438166Y241690D01*
X438356Y241500D01*
X438737D01*
X438928Y241881D01*
Y242071D01*
X440013Y245499D02*
Y241500D01*
X440204Y245499D02*
Y241500D01*
X441346Y244356D02*
Y242833D01*
X439442Y245499D02*
X442489D01*
Y244356D01*
X442299Y245499D01*
X440204Y243595D02*
X441346D01*
X439442Y241500D02*
X442489D01*
Y242643D01*
X442299Y241500D01*
X445517Y244928D02*
X445707Y245499D01*
Y244356D01*
X445517Y244928D01*
X445136Y245309D01*
X444565Y245499D01*
X443993D01*
X443422Y245309D01*
X443041Y244928D01*
Y244547D01*
X443232Y244166D01*
X443422Y243976D01*
X443803Y243785D01*
X444946Y243404D01*
X445327Y243214D01*
X445707Y242833D01*
X443041Y244547D02*
X443422Y244166D01*
X443803Y243976D01*
X444946Y243595D01*
X445327Y243404D01*
X445517Y243214D01*
X445707Y242833D01*
Y242071D01*
X445327Y241690D01*
X444755Y241500D01*
X444184D01*
X443613Y241690D01*
X443232Y242071D01*
X443041Y242643D01*
Y241500D01*
X443232Y242071D01*
X446869Y245499D02*
Y241500D01*
X447059Y245499D02*
Y241500D01*
X448202Y244356D02*
Y242833D01*
X446298Y245499D02*
X449345D01*
Y244356D01*
X449154Y245499D01*
X447059Y243595D02*
X448202D01*
X446298Y241500D02*
X449345D01*
Y242643D01*
X449154Y241500D01*
X451230Y245499D02*
Y241500D01*
X451420Y245499D02*
Y241500D01*
X450087Y245499D02*
X449897Y244356D01*
Y245499D01*
X452753D01*
Y244356D01*
X452563Y245499D01*
X450659Y241500D02*
X451992D01*
X453515Y240167D02*
X456753D01*
X457838Y245499D02*
Y241500D01*
X458029Y245499D02*
X460314Y241881D01*
X458029Y245118D02*
X460314Y241500D01*
Y245499D02*
Y241500D01*
X457267Y245499D02*
X458029D01*
X459742D02*
X460885D01*
X457267Y241500D02*
X458409D01*
X426666Y234928D02*
X426857Y234356D01*
Y235499D01*
X426666Y234928D01*
X426285Y235309D01*
X425714Y235499D01*
X425333D01*
X424762Y235309D01*
X424381Y234928D01*
X424190Y234547D01*
X424000Y233976D01*
Y233024D01*
X424190Y232452D01*
X424381Y232071D01*
X424762Y231690D01*
X425333Y231500D01*
X425714D01*
X426285Y231690D01*
X426666Y232071D01*
X425333Y235499D02*
X424952Y235309D01*
X424571Y234928D01*
X424381Y234547D01*
X424190Y233976D01*
Y233024D01*
X424381Y232452D01*
X424571Y232071D01*
X424952Y231690D01*
X425333Y231500D01*
X426666Y233024D02*
Y231500D01*
X426857Y233024D02*
Y231500D01*
X426095Y233024D02*
X427428D01*
X428513Y235499D02*
Y231500D01*
X428704Y235499D02*
Y231500D01*
X427942Y235499D02*
X430227D01*
X430798Y235309D01*
X430989Y235118D01*
X431179Y234737D01*
Y234166D01*
X430989Y233785D01*
X430798Y233595D01*
X430227Y233404D01*
X428704D01*
X430227Y235499D02*
X430608Y235309D01*
X430798Y235118D01*
X430989Y234737D01*
Y234166D01*
X430798Y233785D01*
X430608Y233595D01*
X430227Y233404D01*
X427942Y231500D02*
X429275D01*
X432284Y235499D02*
Y231500D01*
X432474Y235499D02*
Y231500D01*
X431713Y235499D02*
X433046D01*
X431713Y231500D02*
X433046D01*
X435102Y235499D02*
X434531Y235309D01*
X434150Y234928D01*
X433960Y234547D01*
X433769Y233785D01*
Y233214D01*
X433960Y232452D01*
X434150Y232071D01*
X434531Y231690D01*
X435102Y231500D01*
X435483D01*
X436055Y231690D01*
X436435Y232071D01*
X436626Y232452D01*
X436816Y233214D01*
Y233785D01*
X436626Y234547D01*
X436435Y234928D01*
X436055Y235309D01*
X435483Y235499D01*
X435102D01*
X434722Y235309D01*
X434341Y234928D01*
X434150Y234547D01*
X433960Y233785D01*
Y233214D01*
X434150Y232452D01*
X434341Y232071D01*
X434722Y231690D01*
X435102Y231500D01*
X435483D02*
X435864Y231690D01*
X436245Y232071D01*
X436435Y232452D01*
X436626Y233214D01*
Y233785D01*
X436435Y234547D01*
X436245Y234928D01*
X435864Y235309D01*
X435483Y235499D01*
X437749D02*
X437369Y233595D01*
X437749Y233976D01*
X438321Y234166D01*
X438892D01*
X439463Y233976D01*
X439844Y233595D01*
X440035Y233024D01*
Y232643D01*
X439844Y232071D01*
X439463Y231690D01*
X438892Y231500D01*
X438321D01*
X437749Y231690D01*
X437559Y231881D01*
X437369Y232262D01*
Y232452D01*
X437559Y232643D01*
X437749Y232452D01*
X437559Y232262D01*
X438892Y234166D02*
X439273Y233976D01*
X439654Y233595D01*
X439844Y233024D01*
Y232643D01*
X439654Y232071D01*
X439273Y231690D01*
X438892Y231500D01*
X437749Y235499D02*
X439654D01*
X437749Y235309D02*
X438702D01*
X439654Y235499D01*
X439166Y226428D02*
X439357Y225856D01*
Y226999D01*
X439166Y226428D01*
X438785Y226809D01*
X438214Y226999D01*
X437833D01*
X437262Y226809D01*
X436881Y226428D01*
X436690Y226047D01*
X436500Y225476D01*
Y224523D01*
X436690Y223952D01*
X436881Y223571D01*
X437262Y223190D01*
X437833Y223000D01*
X438214D01*
X438785Y223190D01*
X439166Y223571D01*
X437833Y226999D02*
X437452Y226809D01*
X437071Y226428D01*
X436881Y226047D01*
X436690Y225476D01*
Y224523D01*
X436881Y223952D01*
X437071Y223571D01*
X437452Y223190D01*
X437833Y223000D01*
X439166Y224523D02*
Y223000D01*
X439357Y224523D02*
Y223000D01*
X438595Y224523D02*
X439928D01*
X441013Y226999D02*
Y223000D01*
X441204Y226999D02*
Y223000D01*
X440442Y226999D02*
X442727D01*
X443298Y226809D01*
X443489Y226618D01*
X443679Y226237D01*
Y225666D01*
X443489Y225285D01*
X443298Y225095D01*
X442727Y224904D01*
X441204D01*
X442727Y226999D02*
X443108Y226809D01*
X443298Y226618D01*
X443489Y226237D01*
Y225666D01*
X443298Y225285D01*
X443108Y225095D01*
X442727Y224904D01*
X440442Y223000D02*
X441775D01*
X444784Y226999D02*
Y223000D01*
X444974Y226999D02*
Y223000D01*
X444213Y226999D02*
X445546D01*
X444213Y223000D02*
X445546D01*
X447602Y226999D02*
X447031Y226809D01*
X446650Y226428D01*
X446460Y226047D01*
X446269Y225285D01*
Y224714D01*
X446460Y223952D01*
X446650Y223571D01*
X447031Y223190D01*
X447602Y223000D01*
X447983D01*
X448555Y223190D01*
X448935Y223571D01*
X449126Y223952D01*
X449316Y224714D01*
Y225285D01*
X449126Y226047D01*
X448935Y226428D01*
X448555Y226809D01*
X447983Y226999D01*
X447602D01*
X447222Y226809D01*
X446841Y226428D01*
X446650Y226047D01*
X446460Y225285D01*
Y224714D01*
X446650Y223952D01*
X446841Y223571D01*
X447222Y223190D01*
X447602Y223000D01*
X447983D02*
X448364Y223190D01*
X448745Y223571D01*
X448935Y223952D01*
X449126Y224714D01*
Y225285D01*
X448935Y226047D01*
X448745Y226428D01*
X448364Y226809D01*
X447983Y226999D01*
X452154Y226428D02*
X451963Y226237D01*
X452154Y226047D01*
X452344Y226237D01*
Y226428D01*
X452154Y226809D01*
X451773Y226999D01*
X451202D01*
X450630Y226809D01*
X450249Y226428D01*
X450059Y226047D01*
X449869Y225285D01*
Y224143D01*
X450059Y223571D01*
X450440Y223190D01*
X451011Y223000D01*
X451392D01*
X451963Y223190D01*
X452344Y223571D01*
X452535Y224143D01*
Y224333D01*
X452344Y224904D01*
X451963Y225285D01*
X451392Y225476D01*
X451202D01*
X450630Y225285D01*
X450249Y224904D01*
X450059Y224333D01*
X451202Y226999D02*
X450821Y226809D01*
X450440Y226428D01*
X450249Y226047D01*
X450059Y225285D01*
Y224143D01*
X450249Y223571D01*
X450630Y223190D01*
X451011Y223000D01*
X451392D02*
X451773Y223190D01*
X452154Y223571D01*
X452344Y224143D01*
Y224333D01*
X452154Y224904D01*
X451773Y225285D01*
X451392Y225476D01*
X427666Y215428D02*
X427856Y214857D01*
Y215999D01*
X427666Y215428D01*
X427285Y215809D01*
X426714Y215999D01*
X426333D01*
X425762Y215809D01*
X425381Y215428D01*
X425190Y215047D01*
X425000Y214476D01*
Y213524D01*
X425190Y212952D01*
X425381Y212571D01*
X425762Y212190D01*
X426333Y212000D01*
X426714D01*
X427285Y212190D01*
X427666Y212571D01*
X426333Y215999D02*
X425952Y215809D01*
X425571Y215428D01*
X425381Y215047D01*
X425190Y214476D01*
Y213524D01*
X425381Y212952D01*
X425571Y212571D01*
X425952Y212190D01*
X426333Y212000D01*
X427666Y213524D02*
Y212000D01*
X427856Y213524D02*
Y212000D01*
X427095Y213524D02*
X428428D01*
X429513Y215999D02*
Y212000D01*
X429704Y215999D02*
Y212000D01*
X428942Y215999D02*
X431227D01*
X431799Y215809D01*
X431989Y215618D01*
X432179Y215237D01*
Y214666D01*
X431989Y214285D01*
X431799Y214095D01*
X431227Y213904D01*
X429704D01*
X431227Y215999D02*
X431608Y215809D01*
X431799Y215618D01*
X431989Y215237D01*
Y214666D01*
X431799Y214285D01*
X431608Y214095D01*
X431227Y213904D01*
X428942Y212000D02*
X430275D01*
X433284Y215999D02*
Y212000D01*
X433474Y215999D02*
Y212000D01*
X432713Y215999D02*
X434046D01*
X432713Y212000D02*
X434046D01*
X436102Y215999D02*
X435531Y215809D01*
X435150Y215428D01*
X434960Y215047D01*
X434769Y214285D01*
Y213714D01*
X434960Y212952D01*
X435150Y212571D01*
X435531Y212190D01*
X436102Y212000D01*
X436483D01*
X437055Y212190D01*
X437435Y212571D01*
X437626Y212952D01*
X437816Y213714D01*
Y214285D01*
X437626Y215047D01*
X437435Y215428D01*
X437055Y215809D01*
X436483Y215999D01*
X436102D01*
X435721Y215809D01*
X435341Y215428D01*
X435150Y215047D01*
X434960Y214285D01*
Y213714D01*
X435150Y212952D01*
X435341Y212571D01*
X435721Y212190D01*
X436102Y212000D01*
X436483D02*
X436864Y212190D01*
X437245Y212571D01*
X437435Y212952D01*
X437626Y213714D01*
Y214285D01*
X437435Y215047D01*
X437245Y215428D01*
X436864Y215809D01*
X436483Y215999D01*
X438369D02*
Y214857D01*
Y215237D02*
X438559Y215618D01*
X438940Y215999D01*
X439321D01*
X440273Y215428D01*
X440654D01*
X440844Y215618D01*
X441035Y215999D01*
X438559Y215618D02*
X438940Y215809D01*
X439321D01*
X440273Y215428D01*
X441035Y215999D02*
Y215428D01*
X440844Y214857D01*
X440083Y213904D01*
X439892Y213524D01*
X439702Y212952D01*
Y212000D01*
X440844Y214857D02*
X439892Y213904D01*
X439702Y213524D01*
X439511Y212952D01*
Y212000D01*
X437381Y207499D02*
X438714Y203500D01*
X437571Y207499D02*
X438714Y204071D01*
X440047Y207499D02*
X438714Y203500D01*
X437000Y207499D02*
X438143D01*
X439285D02*
X440428D01*
X441513D02*
Y203500D01*
X441704Y207499D02*
Y203500D01*
X440942Y207499D02*
X442846D01*
X443418Y207309D01*
X443798Y206928D01*
X443989Y206547D01*
X444179Y205976D01*
Y205024D01*
X443989Y204452D01*
X443798Y204071D01*
X443418Y203690D01*
X442846Y203500D01*
X440942D01*
X442846Y207499D02*
X443227Y207309D01*
X443608Y206928D01*
X443798Y206547D01*
X443989Y205976D01*
Y205024D01*
X443798Y204452D01*
X443608Y204071D01*
X443227Y203690D01*
X442846Y203500D01*
X445284Y207499D02*
Y203500D01*
X445474Y207499D02*
Y203500D01*
X444713Y207499D02*
X446617D01*
X447188Y207309D01*
X447569Y206928D01*
X447760Y206547D01*
X447950Y205976D01*
Y205024D01*
X447760Y204452D01*
X447569Y204071D01*
X447188Y203690D01*
X446617Y203500D01*
X444713D01*
X446617Y207499D02*
X446998Y207309D01*
X447379Y206928D01*
X447569Y206547D01*
X447760Y205976D01*
Y205024D01*
X447569Y204452D01*
X447379Y204071D01*
X446998Y203690D01*
X446617Y203500D01*
X450959Y206928D02*
X451149Y207499D01*
Y206357D01*
X450959Y206928D01*
X450578Y207309D01*
X450007Y207499D01*
X449435D01*
X448864Y207309D01*
X448483Y206928D01*
Y206547D01*
X448674Y206166D01*
X448864Y205976D01*
X449245Y205785D01*
X450388Y205404D01*
X450769Y205214D01*
X451149Y204833D01*
X448483Y206547D02*
X448864Y206166D01*
X449245Y205976D01*
X450388Y205595D01*
X450769Y205404D01*
X450959Y205214D01*
X451149Y204833D01*
Y204071D01*
X450769Y203690D01*
X450197Y203500D01*
X449626D01*
X449055Y203690D01*
X448674Y204071D01*
X448483Y204643D01*
Y203500D01*
X448674Y204071D01*
X427666Y196928D02*
X427856Y196356D01*
Y197499D01*
X427666Y196928D01*
X427285Y197309D01*
X426714Y197499D01*
X426333D01*
X425762Y197309D01*
X425381Y196928D01*
X425190Y196547D01*
X425000Y195976D01*
Y195024D01*
X425190Y194452D01*
X425381Y194071D01*
X425762Y193690D01*
X426333Y193500D01*
X426714D01*
X427285Y193690D01*
X427666Y194071D01*
X426333Y197499D02*
X425952Y197309D01*
X425571Y196928D01*
X425381Y196547D01*
X425190Y195976D01*
Y195024D01*
X425381Y194452D01*
X425571Y194071D01*
X425952Y193690D01*
X426333Y193500D01*
X427666Y195024D02*
Y193500D01*
X427856Y195024D02*
Y193500D01*
X427095Y195024D02*
X428428D01*
X429513Y197499D02*
Y193500D01*
X429704Y197499D02*
Y193500D01*
X428942Y197499D02*
X431227D01*
X431799Y197309D01*
X431989Y197118D01*
X432179Y196737D01*
Y196166D01*
X431989Y195785D01*
X431799Y195595D01*
X431227Y195404D01*
X429704D01*
X431227Y197499D02*
X431608Y197309D01*
X431799Y197118D01*
X431989Y196737D01*
Y196166D01*
X431799Y195785D01*
X431608Y195595D01*
X431227Y195404D01*
X428942Y193500D02*
X430275D01*
X433284Y197499D02*
Y193500D01*
X433474Y197499D02*
Y193500D01*
X432713Y197499D02*
X434046D01*
X432713Y193500D02*
X434046D01*
X436102Y197499D02*
X435531Y197309D01*
X435150Y196928D01*
X434960Y196547D01*
X434769Y195785D01*
Y195214D01*
X434960Y194452D01*
X435150Y194071D01*
X435531Y193690D01*
X436102Y193500D01*
X436483D01*
X437055Y193690D01*
X437435Y194071D01*
X437626Y194452D01*
X437816Y195214D01*
Y195785D01*
X437626Y196547D01*
X437435Y196928D01*
X437055Y197309D01*
X436483Y197499D01*
X436102D01*
X435721Y197309D01*
X435341Y196928D01*
X435150Y196547D01*
X434960Y195785D01*
Y195214D01*
X435150Y194452D01*
X435341Y194071D01*
X435721Y193690D01*
X436102Y193500D01*
X436483D02*
X436864Y193690D01*
X437245Y194071D01*
X437435Y194452D01*
X437626Y195214D01*
Y195785D01*
X437435Y196547D01*
X437245Y196928D01*
X436864Y197309D01*
X436483Y197499D01*
X438369Y196737D02*
X438749Y196928D01*
X439321Y197499D01*
Y193500D01*
X439130Y197309D02*
Y193500D01*
X438369D02*
X440083D01*
X441911Y197499D02*
X441339Y197309D01*
X440958Y196737D01*
X440768Y195785D01*
Y195214D01*
X440958Y194262D01*
X441339Y193690D01*
X441911Y193500D01*
X442291D01*
X442863Y193690D01*
X443244Y194262D01*
X443434Y195214D01*
Y195785D01*
X443244Y196737D01*
X442863Y197309D01*
X442291Y197499D01*
X441911D01*
X441530Y197309D01*
X441339Y197118D01*
X441149Y196737D01*
X440958Y195785D01*
Y195214D01*
X441149Y194262D01*
X441339Y193881D01*
X441530Y193690D01*
X441911Y193500D01*
X442291D02*
X442672Y193690D01*
X442863Y193881D01*
X443053Y194262D01*
X443244Y195214D01*
Y195785D01*
X443053Y196737D01*
X442863Y197118D01*
X442672Y197309D01*
X442291Y197499D01*
X441666Y295928D02*
X441856Y295356D01*
Y296499D01*
X441666Y295928D01*
X441285Y296309D01*
X440714Y296499D01*
X440333D01*
X439762Y296309D01*
X439381Y295928D01*
X439190Y295547D01*
X439000Y294976D01*
Y294023D01*
X439190Y293452D01*
X439381Y293071D01*
X439762Y292690D01*
X440333Y292500D01*
X440714D01*
X441285Y292690D01*
X441666Y293071D01*
X440333Y296499D02*
X439952Y296309D01*
X439571Y295928D01*
X439381Y295547D01*
X439190Y294976D01*
Y294023D01*
X439381Y293452D01*
X439571Y293071D01*
X439952Y292690D01*
X440333Y292500D01*
X441666Y294023D02*
Y292500D01*
X441856Y294023D02*
Y292500D01*
X441095Y294023D02*
X442428D01*
X443513Y296499D02*
Y292500D01*
X443704Y296499D02*
Y292500D01*
X442942Y296499D02*
X445227D01*
X445798Y296309D01*
X445989Y296118D01*
X446179Y295737D01*
Y295166D01*
X445989Y294785D01*
X445798Y294595D01*
X445227Y294404D01*
X443704D01*
X445227Y296499D02*
X445608Y296309D01*
X445798Y296118D01*
X445989Y295737D01*
Y295166D01*
X445798Y294785D01*
X445608Y294595D01*
X445227Y294404D01*
X442942Y292500D02*
X444275D01*
X447284Y296499D02*
Y292500D01*
X447474Y296499D02*
Y292500D01*
X446713Y296499D02*
X448046D01*
X446713Y292500D02*
X448046D01*
X450102Y296499D02*
X449531Y296309D01*
X449150Y295928D01*
X448960Y295547D01*
X448769Y294785D01*
Y294214D01*
X448960Y293452D01*
X449150Y293071D01*
X449531Y292690D01*
X450102Y292500D01*
X450483D01*
X451055Y292690D01*
X451435Y293071D01*
X451626Y293452D01*
X451816Y294214D01*
Y294785D01*
X451626Y295547D01*
X451435Y295928D01*
X451055Y296309D01*
X450483Y296499D01*
X450102D01*
X449721Y296309D01*
X449341Y295928D01*
X449150Y295547D01*
X448960Y294785D01*
Y294214D01*
X449150Y293452D01*
X449341Y293071D01*
X449721Y292690D01*
X450102Y292500D01*
X450483D02*
X450864Y292690D01*
X451245Y293071D01*
X451435Y293452D01*
X451626Y294214D01*
Y294785D01*
X451435Y295547D01*
X451245Y295928D01*
X450864Y296309D01*
X450483Y296499D01*
X454844Y295166D02*
X454654Y294595D01*
X454273Y294214D01*
X453702Y294023D01*
X453511D01*
X452940Y294214D01*
X452559Y294595D01*
X452369Y295166D01*
Y295356D01*
X452559Y295928D01*
X452940Y296309D01*
X453511Y296499D01*
X453892D01*
X454463Y296309D01*
X454844Y295928D01*
X455035Y295356D01*
Y294214D01*
X454844Y293452D01*
X454654Y293071D01*
X454273Y292690D01*
X453702Y292500D01*
X453130D01*
X452749Y292690D01*
X452559Y293071D01*
Y293262D01*
X452749Y293452D01*
X452940Y293262D01*
X452749Y293071D01*
X453511Y294023D02*
X453130Y294214D01*
X452749Y294595D01*
X452559Y295166D01*
Y295356D01*
X452749Y295928D01*
X453130Y296309D01*
X453511Y296499D01*
X453892D02*
X454273Y296309D01*
X454654Y295928D01*
X454844Y295356D01*
Y294214D01*
X454654Y293452D01*
X454463Y293071D01*
X454082Y292690D01*
X453702Y292500D01*
X453666Y305928D02*
X453857Y305357D01*
Y306499D01*
X453666Y305928D01*
X453285Y306309D01*
X452714Y306499D01*
X452333D01*
X451762Y306309D01*
X451381Y305928D01*
X451190Y305547D01*
X451000Y304976D01*
Y304024D01*
X451190Y303452D01*
X451381Y303071D01*
X451762Y302690D01*
X452333Y302500D01*
X452714D01*
X453285Y302690D01*
X453666Y303071D01*
X452333Y306499D02*
X451952Y306309D01*
X451571Y305928D01*
X451381Y305547D01*
X451190Y304976D01*
Y304024D01*
X451381Y303452D01*
X451571Y303071D01*
X451952Y302690D01*
X452333Y302500D01*
X453666Y304024D02*
Y302500D01*
X453857Y304024D02*
Y302500D01*
X453095Y304024D02*
X454428D01*
X455513Y306499D02*
Y302500D01*
X455704Y306499D02*
Y302500D01*
X454942Y306499D02*
X457227D01*
X457798Y306309D01*
X457989Y306118D01*
X458179Y305737D01*
Y305166D01*
X457989Y304785D01*
X457798Y304595D01*
X457227Y304404D01*
X455704D01*
X457227Y306499D02*
X457608Y306309D01*
X457798Y306118D01*
X457989Y305737D01*
Y305166D01*
X457798Y304785D01*
X457608Y304595D01*
X457227Y304404D01*
X454942Y302500D02*
X456275D01*
X459284Y306499D02*
Y302500D01*
X459474Y306499D02*
Y302500D01*
X458713Y306499D02*
X460046D01*
X458713Y302500D02*
X460046D01*
X462102Y306499D02*
X461531Y306309D01*
X461150Y305928D01*
X460960Y305547D01*
X460769Y304785D01*
Y304214D01*
X460960Y303452D01*
X461150Y303071D01*
X461531Y302690D01*
X462102Y302500D01*
X462483D01*
X463055Y302690D01*
X463435Y303071D01*
X463626Y303452D01*
X463816Y304214D01*
Y304785D01*
X463626Y305547D01*
X463435Y305928D01*
X463055Y306309D01*
X462483Y306499D01*
X462102D01*
X461722Y306309D01*
X461341Y305928D01*
X461150Y305547D01*
X460960Y304785D01*
Y304214D01*
X461150Y303452D01*
X461341Y303071D01*
X461722Y302690D01*
X462102Y302500D01*
X462483D02*
X462864Y302690D01*
X463245Y303071D01*
X463435Y303452D01*
X463626Y304214D01*
Y304785D01*
X463435Y305547D01*
X463245Y305928D01*
X462864Y306309D01*
X462483Y306499D01*
X464559Y305737D02*
X464749Y305547D01*
X464559Y305357D01*
X464369Y305547D01*
Y305737D01*
X464559Y306118D01*
X464749Y306309D01*
X465321Y306499D01*
X466082D01*
X466654Y306309D01*
X466844Y305928D01*
Y305357D01*
X466654Y304976D01*
X466082Y304785D01*
X465511D01*
X466082Y306499D02*
X466463Y306309D01*
X466654Y305928D01*
Y305357D01*
X466463Y304976D01*
X466082Y304785D01*
X466463Y304595D01*
X466844Y304214D01*
X467035Y303833D01*
Y303262D01*
X466844Y302881D01*
X466654Y302690D01*
X466082Y302500D01*
X465321D01*
X464749Y302690D01*
X464559Y302881D01*
X464369Y303262D01*
Y303452D01*
X464559Y303643D01*
X464749Y303452D01*
X464559Y303262D01*
X466654Y304404D02*
X466844Y303833D01*
Y303262D01*
X466654Y302881D01*
X466463Y302690D01*
X466082Y302500D01*
X441666Y314428D02*
X441856Y313857D01*
Y314999D01*
X441666Y314428D01*
X441285Y314809D01*
X440714Y314999D01*
X440333D01*
X439762Y314809D01*
X439381Y314428D01*
X439190Y314047D01*
X439000Y313476D01*
Y312524D01*
X439190Y311952D01*
X439381Y311571D01*
X439762Y311190D01*
X440333Y311000D01*
X440714D01*
X441285Y311190D01*
X441666Y311571D01*
X440333Y314999D02*
X439952Y314809D01*
X439571Y314428D01*
X439381Y314047D01*
X439190Y313476D01*
Y312524D01*
X439381Y311952D01*
X439571Y311571D01*
X439952Y311190D01*
X440333Y311000D01*
X441666Y312524D02*
Y311000D01*
X441856Y312524D02*
Y311000D01*
X441095Y312524D02*
X442428D01*
X443513Y314999D02*
Y311000D01*
X443704Y314999D02*
Y311000D01*
X442942Y314999D02*
X445227D01*
X445798Y314809D01*
X445989Y314618D01*
X446179Y314237D01*
Y313666D01*
X445989Y313285D01*
X445798Y313095D01*
X445227Y312904D01*
X443704D01*
X445227Y314999D02*
X445608Y314809D01*
X445798Y314618D01*
X445989Y314237D01*
Y313666D01*
X445798Y313285D01*
X445608Y313095D01*
X445227Y312904D01*
X442942Y311000D02*
X444275D01*
X447284Y314999D02*
Y311000D01*
X447474Y314999D02*
Y311000D01*
X446713Y314999D02*
X448046D01*
X446713Y311000D02*
X448046D01*
X450102Y314999D02*
X449531Y314809D01*
X449150Y314428D01*
X448960Y314047D01*
X448769Y313285D01*
Y312714D01*
X448960Y311952D01*
X449150Y311571D01*
X449531Y311190D01*
X450102Y311000D01*
X450483D01*
X451055Y311190D01*
X451435Y311571D01*
X451626Y311952D01*
X451816Y312714D01*
Y313285D01*
X451626Y314047D01*
X451435Y314428D01*
X451055Y314809D01*
X450483Y314999D01*
X450102D01*
X449721Y314809D01*
X449341Y314428D01*
X449150Y314047D01*
X448960Y313285D01*
Y312714D01*
X449150Y311952D01*
X449341Y311571D01*
X449721Y311190D01*
X450102Y311000D01*
X450483D02*
X450864Y311190D01*
X451245Y311571D01*
X451435Y311952D01*
X451626Y312714D01*
Y313285D01*
X451435Y314047D01*
X451245Y314428D01*
X450864Y314809D01*
X450483Y314999D01*
X452559Y314237D02*
X452749Y314047D01*
X452559Y313857D01*
X452369Y314047D01*
Y314237D01*
X452559Y314618D01*
X452749Y314809D01*
X453321Y314999D01*
X454082D01*
X454654Y314809D01*
X454844Y314618D01*
X455035Y314237D01*
Y313857D01*
X454844Y313476D01*
X454273Y313095D01*
X453321Y312714D01*
X452940Y312524D01*
X452559Y312143D01*
X452369Y311571D01*
Y311000D01*
X454082Y314999D02*
X454463Y314809D01*
X454654Y314618D01*
X454844Y314237D01*
Y313857D01*
X454654Y313476D01*
X454082Y313095D01*
X453321Y312714D01*
X452369Y311381D02*
X452559Y311571D01*
X452940D01*
X453892Y311190D01*
X454463D01*
X454844Y311381D01*
X455035Y311571D01*
Y311952D01*
X452940Y311571D02*
X453892Y311000D01*
X454654D01*
X454844Y311190D01*
X455035Y311571D01*
X453166Y325428D02*
X453357Y324856D01*
Y325999D01*
X453166Y325428D01*
X452785Y325809D01*
X452214Y325999D01*
X451833D01*
X451262Y325809D01*
X450881Y325428D01*
X450690Y325047D01*
X450500Y324476D01*
Y323523D01*
X450690Y322952D01*
X450881Y322571D01*
X451262Y322190D01*
X451833Y322000D01*
X452214D01*
X452785Y322190D01*
X453166Y322571D01*
X451833Y325999D02*
X451452Y325809D01*
X451071Y325428D01*
X450881Y325047D01*
X450690Y324476D01*
Y323523D01*
X450881Y322952D01*
X451071Y322571D01*
X451452Y322190D01*
X451833Y322000D01*
X453166Y323523D02*
Y322000D01*
X453357Y323523D02*
Y322000D01*
X452595Y323523D02*
X453928D01*
X455013Y325999D02*
Y322000D01*
X455204Y325999D02*
Y322000D01*
X454442Y325999D02*
X456727D01*
X457299Y325809D01*
X457489Y325618D01*
X457679Y325237D01*
Y324666D01*
X457489Y324285D01*
X457299Y324095D01*
X456727Y323904D01*
X455204D01*
X456727Y325999D02*
X457108Y325809D01*
X457299Y325618D01*
X457489Y325237D01*
Y324666D01*
X457299Y324285D01*
X457108Y324095D01*
X456727Y323904D01*
X454442Y322000D02*
X455775D01*
X458784Y325999D02*
Y322000D01*
X458974Y325999D02*
Y322000D01*
X458213Y325999D02*
X459546D01*
X458213Y322000D02*
X459546D01*
X461602Y325999D02*
X461031Y325809D01*
X460650Y325428D01*
X460460Y325047D01*
X460269Y324285D01*
Y323714D01*
X460460Y322952D01*
X460650Y322571D01*
X461031Y322190D01*
X461602Y322000D01*
X461983D01*
X462555Y322190D01*
X462935Y322571D01*
X463126Y322952D01*
X463316Y323714D01*
Y324285D01*
X463126Y325047D01*
X462935Y325428D01*
X462555Y325809D01*
X461983Y325999D01*
X461602D01*
X461222Y325809D01*
X460841Y325428D01*
X460650Y325047D01*
X460460Y324285D01*
Y323714D01*
X460650Y322952D01*
X460841Y322571D01*
X461222Y322190D01*
X461602Y322000D01*
X461983D02*
X462364Y322190D01*
X462745Y322571D01*
X462935Y322952D01*
X463126Y323714D01*
Y324285D01*
X462935Y325047D01*
X462745Y325428D01*
X462364Y325809D01*
X461983Y325999D01*
X463869Y325237D02*
X464249Y325428D01*
X464821Y325999D01*
Y322000D01*
X464630Y325809D02*
Y322000D01*
X463869D02*
X465583D01*
X440666Y333928D02*
X440857Y333356D01*
Y334499D01*
X440666Y333928D01*
X440285Y334309D01*
X439714Y334499D01*
X439333D01*
X438762Y334309D01*
X438381Y333928D01*
X438190Y333547D01*
X438000Y332976D01*
Y332024D01*
X438190Y331452D01*
X438381Y331071D01*
X438762Y330690D01*
X439333Y330500D01*
X439714D01*
X440285Y330690D01*
X440666Y331071D01*
X439333Y334499D02*
X438952Y334309D01*
X438571Y333928D01*
X438381Y333547D01*
X438190Y332976D01*
Y332024D01*
X438381Y331452D01*
X438571Y331071D01*
X438952Y330690D01*
X439333Y330500D01*
X440666Y332024D02*
Y330500D01*
X440857Y332024D02*
Y330500D01*
X440095Y332024D02*
X441428D01*
X442513Y334499D02*
Y330500D01*
X442704Y334499D02*
Y330500D01*
X441942Y334499D02*
X444227D01*
X444799Y334309D01*
X444989Y334118D01*
X445179Y333737D01*
Y333166D01*
X444989Y332785D01*
X444799Y332595D01*
X444227Y332404D01*
X442704D01*
X444227Y334499D02*
X444608Y334309D01*
X444799Y334118D01*
X444989Y333737D01*
Y333166D01*
X444799Y332785D01*
X444608Y332595D01*
X444227Y332404D01*
X441942Y330500D02*
X443275D01*
X446284Y334499D02*
Y330500D01*
X446474Y334499D02*
Y330500D01*
X445713Y334499D02*
X447046D01*
X445713Y330500D02*
X447046D01*
X449102Y334499D02*
X448531Y334309D01*
X448150Y333928D01*
X447960Y333547D01*
X447769Y332785D01*
Y332214D01*
X447960Y331452D01*
X448150Y331071D01*
X448531Y330690D01*
X449102Y330500D01*
X449483D01*
X450055Y330690D01*
X450435Y331071D01*
X450626Y331452D01*
X450816Y332214D01*
Y332785D01*
X450626Y333547D01*
X450435Y333928D01*
X450055Y334309D01*
X449483Y334499D01*
X449102D01*
X448722Y334309D01*
X448341Y333928D01*
X448150Y333547D01*
X447960Y332785D01*
Y332214D01*
X448150Y331452D01*
X448341Y331071D01*
X448722Y330690D01*
X449102Y330500D01*
X449483D02*
X449864Y330690D01*
X450245Y331071D01*
X450435Y331452D01*
X450626Y332214D01*
Y332785D01*
X450435Y333547D01*
X450245Y333928D01*
X449864Y334309D01*
X449483Y334499D01*
X452321D02*
X451749Y334309D01*
X451559Y333928D01*
Y333356D01*
X451749Y332976D01*
X452321Y332785D01*
X453083D01*
X453654Y332976D01*
X453844Y333356D01*
Y333928D01*
X453654Y334309D01*
X453083Y334499D01*
X452321D01*
X451940Y334309D01*
X451749Y333928D01*
Y333356D01*
X451940Y332976D01*
X452321Y332785D01*
X453083D02*
X453463Y332976D01*
X453654Y333356D01*
Y333928D01*
X453463Y334309D01*
X453083Y334499D01*
X452321Y332785D02*
X451749Y332595D01*
X451559Y332404D01*
X451369Y332024D01*
Y331262D01*
X451559Y330881D01*
X451749Y330690D01*
X452321Y330500D01*
X453083D01*
X453654Y330690D01*
X453844Y330881D01*
X454035Y331262D01*
Y332024D01*
X453844Y332404D01*
X453654Y332595D01*
X453083Y332785D01*
X452321D02*
X451940Y332595D01*
X451749Y332404D01*
X451559Y332024D01*
Y331262D01*
X451749Y330881D01*
X451940Y330690D01*
X452321Y330500D01*
X453083D02*
X453463Y330690D01*
X453654Y330881D01*
X453844Y331262D01*
Y332024D01*
X453654Y332404D01*
X453463Y332595D01*
X453083Y332785D01*
X452166Y343928D02*
X452356Y343356D01*
Y344499D01*
X452166Y343928D01*
X451785Y344309D01*
X451214Y344499D01*
X450833D01*
X450262Y344309D01*
X449881Y343928D01*
X449690Y343547D01*
X449500Y342976D01*
Y342023D01*
X449690Y341452D01*
X449881Y341071D01*
X450262Y340690D01*
X450833Y340500D01*
X451214D01*
X451785Y340690D01*
X452166Y341071D01*
X450833Y344499D02*
X450452Y344309D01*
X450071Y343928D01*
X449881Y343547D01*
X449690Y342976D01*
Y342023D01*
X449881Y341452D01*
X450071Y341071D01*
X450452Y340690D01*
X450833Y340500D01*
X452166Y342023D02*
Y340500D01*
X452356Y342023D02*
Y340500D01*
X451595Y342023D02*
X452928D01*
X454013Y344499D02*
Y340500D01*
X454204Y344499D02*
Y340500D01*
X453442Y344499D02*
X455727D01*
X456298Y344309D01*
X456489Y344118D01*
X456679Y343737D01*
Y343166D01*
X456489Y342785D01*
X456298Y342595D01*
X455727Y342404D01*
X454204D01*
X455727Y344499D02*
X456108Y344309D01*
X456298Y344118D01*
X456489Y343737D01*
Y343166D01*
X456298Y342785D01*
X456108Y342595D01*
X455727Y342404D01*
X453442Y340500D02*
X454775D01*
X457784Y344499D02*
Y340500D01*
X457974Y344499D02*
Y340500D01*
X457213Y344499D02*
X458546D01*
X457213Y340500D02*
X458546D01*
X460602Y344499D02*
X460031Y344309D01*
X459650Y343928D01*
X459460Y343547D01*
X459269Y342785D01*
Y342214D01*
X459460Y341452D01*
X459650Y341071D01*
X460031Y340690D01*
X460602Y340500D01*
X460983D01*
X461555Y340690D01*
X461935Y341071D01*
X462126Y341452D01*
X462316Y342214D01*
Y342785D01*
X462126Y343547D01*
X461935Y343928D01*
X461555Y344309D01*
X460983Y344499D01*
X460602D01*
X460221Y344309D01*
X459841Y343928D01*
X459650Y343547D01*
X459460Y342785D01*
Y342214D01*
X459650Y341452D01*
X459841Y341071D01*
X460221Y340690D01*
X460602Y340500D01*
X460983D02*
X461364Y340690D01*
X461745Y341071D01*
X461935Y341452D01*
X462126Y342214D01*
Y342785D01*
X461935Y343547D01*
X461745Y343928D01*
X461364Y344309D01*
X460983Y344499D01*
X464773Y344118D02*
Y340500D01*
X465915Y341643D02*
X462869D01*
X464963Y344499D01*
Y340500D01*
X464202D02*
X465535D01*
M02*
